<?xml version="1.0" encoding="UTF-8"?>
<svg id="Ebene_2" data-name="Ebene 2" xmlns="http://www.w3.org/2000/svg" viewBox="0 0 64 64">
  <defs>
    <style>
      .cls-1 {
        fill: none;
      }
    </style>
  </defs>
  <g id="Ebene_1-2" data-name="Ebene 1">
    <g>
      <g>
        <path d="m28.04,61.28c-3.24-.21-6.34-1.11-9.24-2.55-1.34-.8-3.17-1.33-3.9-2.81-6.77-3.29-11.37-9.74-13.28-16.92C-1.86,28.17.06,16.57,9.41,9.38,26.36-4.03,56.35,3.52,62.55,24.93c7.06,21.88-12.97,36.38-32.92,36.38-.53,0-1.06-.01-1.59-.03Zm-4.86-7.19c3.36,1.23,6.95,1.23,10.47.91,9.23-1.04,20.54-6.18,23.63-15.55,3.68-12.18-4.52-25.51-16.34-29.33C25.9,4.22,4.32,11.65,4.97,30.07c.41,8.54,3.49,17.73,11.3,22.18.38-.15.77-.21,1.15-.21,1.95,0,3.85,1.68,5.78,2.06Z"/>
        <path d="m28.65,44.41c-1.02-5.13-.83-10.48-1.58-15.68-.25-2.43-.3-4.87-.19-7.31.06-.92.04-2,.63-2.76.64-.89,2.08-.98,2.81-.18,0,0,0,0,.01,0,1.19,1.51.81,3.64.91,5.44-.16,3.57.36,7.59.58,11,.13,2,.21,4,.34,6,.11,1.6.6,4.24-1.56,4.61-.08.01-.16.02-.25.02-.73,0-1.45-.44-1.72-1.13Z"/>
        <path d="m40.3,35.27c-7.88-.37-15.77-.7-23.64-.94-1.09.56-2.56-.13-2.86-1.33-.39-1.39.82-2.74,2.16-2.64,3.66-.32,7.94-.25,11.44-.51,5.29-.33,10.63-.98,15.84.31,2.64.26,2.92,4.34.33,4.93-.7.16-1.41.25-2.12.25-.38,0-.77-.03-1.15-.08Z"/>
      </g>
      <rect class="cls-1" width="64" height="64"/>
    </g>
  </g>
</svg>