<?xml version="1.0" encoding="UTF-8"?>
<svg id="Ebene_2" data-name="Ebene 2" xmlns="http://www.w3.org/2000/svg" viewBox="0 0 64 64">
  <defs>
    <style>
      .cls-1 {
        fill: none;
      }
    </style>
  </defs>
  <g id="Ebene_1-2" data-name="Ebene 1">
    <g>
      <g>
        <path d="m6.74,63.19c-2.94-1.18-3.01-4.69-3.56-7.35-2.57-12.12.52-24.42-.3-36.64.04-1.24-.57-2.4-.35-3.63.81-2.73,4.78-1.95,4.61.81,3.28,13.78-.97,28.05,2,41.86,4.35.09,8.73-.59,13.13-1.27,4.78-.74,9.61-1.48,14.49-1.22,2.25-.1,4.55.03,6.85.17,4.31.25,8.65.5,12.71-.78.48-12.73.07-25.64,1.12-38.33.32-2.64,4.38-2.39,4.37.3.09,5.56-.11,11.12-.21,16.68-.06,5.61.08,11.23-.13,16.84-.19,2.75.3,6.04-1.95,8.09-2.01,1.89-5.08,2.33-7.73,2.53-5.44.35-10.89.09-16.34.35-6.33.18-12.58,1.31-18.86,2.01-1.73.15-3.53.4-5.31.4-1.56,0-3.1-.19-4.57-.81Z"/>
        <path d="m18.75,20.82c-2.29-.08-3.16-2.6-3.32-4.56C14.43,9.97,17.2,1.99,23.91.23c3.81-1.4,12.12,3.85,8.45,7.98-1.28,1.28-3.24,1.17-4.53,0-.67-.5-1.34-1.26-2.2-1.36-3.87,1.17-4.92,6.08-4.61,9.65,1.07,1.81.15,4.33-2.1,4.33-.05,0-.11,0-.17,0Z"/>
        <path d="m39.64,18.73c-2.9-1.95-2.39-6.2-1.36-9.09,2.41-8.12,11.73-9.74,14.73-1.08,1.01,2.34-1.49,4.9-3.85,3.85-1.44-.56-1.69-2.22-2.64-3.28-2.06-1.95-4.77,4.82-4.38,6.47,1.31,1.35.07,3.43-1.5,3.43-.33,0-.67-.09-1.01-.3Z"/>
        <path d="m18.25,31.04c-3.41-.32-3.73-4.29-.33-4.96,2.07-.44,3.15,1,3.16,2.44,0,1.26-.81,2.53-2.51,2.53-.11,0-.21,0-.33-.01Z"/>
        <path d="m25.27,28.58c0-1.83,1.53-3.36,3.36-3.36s3.36,1.53,3.36,3.36-1.53,3.36-3.36,3.36-3.36-1.53-3.36-3.36Z"/>
        <path d="m35.96,27.54c0-1.94,1.62-3.56,3.56-3.56s3.56,1.62,3.56,3.56-1.62,3.56-3.56,3.56-3.56-1.62-3.56-3.56Z"/>
        <path d="m14.83,36.76c0-1.89,1.58-3.48,3.48-3.48s3.48,1.58,3.48,3.48-1.58,3.48-3.48,3.48-3.48-1.58-3.48-3.48Z"/>
        <path d="m25.57,36.76c0-1.64,1.36-3,3-3s3,1.36,3,3-1.36,3-3,3-3-1.36-3-3Z"/>
        <path d="m35.95,35.88c0-1.8,1.51-3.31,3.31-3.31s3.31,1.51,3.31,3.31-1.51,3.31-3.31,3.31-3.31-1.51-3.31-3.31Z"/>
        <path d="m38.18,46.56c.09.65.36,1.25.75,1.74-.42-.47-.7-1.08-.75-1.74Z"/>
        <path d="m15.32,46.52c0-1.43,1.19-2.62,2.62-2.62s2.62,1.19,2.62,2.62-1.19,2.62-2.62,2.62-2.62-1.19-2.62-2.62Z"/>
        <path d="m26.94,46.33c0-1.34,1.12-2.46,2.46-2.46s2.46,1.12,2.46,2.46-1.12,2.46-2.46,2.46-2.46-1.12-2.46-2.46Z"/>
        <path d="m35.45,44.93c0-1.77,1.48-3.24,3.24-3.24s3.24,1.48,3.24,3.24-1.48,3.24-3.24,3.24-3.24-1.48-3.24-3.24Z"/>
        <path d="m47.06,27.34c0-1.11.93-2.04,2.04-2.04s2.04.93,2.04,2.04-.93,2.04-2.04,2.04-2.04-.93-2.04-2.04Z"/>
        <path d="m45.39,35.94c0-1.84,1.53-3.38,3.38-3.38s3.38,1.53,3.38,3.38-1.53,3.38-3.38,3.38-3.38-1.53-3.38-3.38Z"/>
        <path d="m45.88,43.98c0-1.52,1.26-2.78,2.78-2.78s2.78,1.26,2.78,2.78-1.26,2.78-2.78,2.78-2.78-1.26-2.78-2.78Z"/>
      </g>
      <rect class="cls-1" width="64" height="64"/>
    </g>
  </g>
</svg>