<?xml version="1.0" encoding="UTF-8"?>
<svg id="Ebene_2" data-name="Ebene 2" xmlns="http://www.w3.org/2000/svg" viewBox="0 0 64 64">
  <defs>
    <style>
      .cls-1 {
        fill: none;
      }
    </style>
  </defs>
  <g id="Ebene_1-2" data-name="Ebene 1">
    <g>
      <g>
        <path d="m23.1,51.69c-.23-.06-.45-.16-.64-.31-.76-.57-1.01-1.81-.35-2.57,3.55-4.19,7.08-7.97,10.79-11.94,8.1-8.72,16.07-17.56,23.41-26.92-4.15-.63-8.33-2.31-10.96-5.71-4.4,3.88-8.3,8.45-12.05,12.81-5.62,6.75-11.83,12.94-17.7,19.47-1.82,1.58-5.4,8.23-7.87,4.98-.63-1.08-.04-2.3,1.01-2.82,5.15-5.53,9.98-11.23,15.06-16.79,6.4-7.23,12.21-15.39,19.95-21.18,2.58-1.96,4.05.47,5.75,2.15,2.03,1.75,4.63,2.57,7.22,3.04,6.41.28,5.45,3.82,2.08,7.72-3.78,4.82-7.74,9.54-11.8,14.13-5.64,6.38-11.52,12.55-17.41,18.71-1.54,1.6-3.09,3.19-4.7,4.73-.36.35-.84.54-1.32.54-.15,0-.3-.02-.45-.05Z"/>
        <path d="m48.46,21.04s-.06-.02-.1-.03c-4.73-1.42-9.59-3.57-12.27-7.93-.66-.63-1.01-1.63-.9-2.53.25-2.97,4.62-3.63,5.74-.85.24,1.35.87,2.55,1.97,3.43,2.03,1.62,4.51,2.52,6.91,3.43,1.09.39,1.67,1.67,1.39,2.75-.25,1.01-1.24,1.79-2.27,1.79-.16,0-.33-.02-.49-.06Z"/>
        <path d="m22.97,50.19c-.1-.03-.2-.06-.31-.1-1.96-1.01-16.93-5.88-11.79-8.78.81-.28,1.61.09,2.38.37,3.63,1.58,7.4,2.82,11.09,4.26,2.4,1.02,1.38,4.32-.8,4.32-.18,0-.38-.02-.58-.08Z"/>
        <path d="m3.79,63.95c-.4-.1-.76-.35-.99-.74-.47-.8-.18-1.77.58-2.27,2.58-1.71,5.25-3.26,7.89-4.86,2.66-1.66,5.25-3.42,7.92-5.08,1.27-.69,3.36-2.58,4.55-.89.46.76-.05,1.8-.85,2.01-2.07,1.49-4.1,3.05-6.17,4.46-3.73,2.63-7.61,5.05-11.65,7.21-.27.15-.57.22-.86.22-.15,0-.28-.02-.42-.05Z"/>
        <path d="m5.15,62.47c-.86-.22-1.44-1.14-1.19-2.01,1.46-5.73,3.83-11.46,3.89-17.43-.12-.95-.62-2.09.46-2.7.73-.44,1.76-.13,2.09.67.85,2.55.33,5.33-.08,7.93-.76,4.17-1.96,8.27-3.16,12.33-.22.73-.86,1.25-1.6,1.25-.13,0-.26-.02-.4-.05Z"/>
        <path d="m9.23,55.03c-.67-.17-1.08-.86-.91-1.53.17-.67.86-1.08,1.53-.91.67.17,1.08.87.91,1.53-.15.56-.66.95-1.22.95-.1,0-.21-.02-.31-.04Z"/>
        <path d="m11.49,57.43c-.1-.03-.2-.06-.3-.1-.5-.31-1.09-.44-1.68-.56-.99-.22-1.98-.44-2.43-1.47-.54-1.23.17-2.67,1.44-3.01,2.19-.21,6.55.84,5.56,3.82-.34.85-1.2,1.39-2.08,1.39-.17,0-.34-.02-.51-.06Z"/>
        <path d="m8.35,59.05c-.61-.15-1.14-.6-1.41-1.43-.46-1.49.73-2.69,1.91-3.4.69-.58,1.71-.9,2.53-.45,1.53.4,1.6,2.73.1,3.23-.33,1.27-1.52,2.11-2.62,2.11-.17,0-.34-.02-.51-.06Z"/>
        <path d="m12.81,56.39c-.35-.09-.68-.3-.92-.64-.85-1.07-1.61-1.98-2.67-2.81-1.01-.45-1.94-1.49-1.29-2.64,2.28-2.67,6.87,1.41,7.19,4.05.23,1.2-.84,2.09-1.88,2.09-.15,0-.29-.02-.43-.05Z"/>
        <path d="m2.91,62.75c-.83-1.05.37-2.08.59-3.1.34-1.01,1.07-1.82,1.31-2.88.43-1.22,1.27-2.24,1.65-3.47.17-.49.33-.99.58-1.46.47-.85,1.83-.27,1.56.66-.08.31-.19.6-.3.88-.75,2.36-.98,4.91-2.18,7.08-.36,1.06-1.04,2.85-2.12,2.85-.32,0-.69-.16-1.09-.56Z"/>
      </g>
      <rect class="cls-1" width="64" height="64"/>
    </g>
  </g>
</svg>