<?xml version="1.0" encoding="UTF-8"?>
<svg id="Ebene_2" data-name="Ebene 2" xmlns="http://www.w3.org/2000/svg" viewBox="0 0 64 64">
  <g id="Ebene_1-2" data-name="Ebene 1">
    <g>
      <path d="m32.74,49.38c-15.68-1.52-19.58-18.25-19.02-31.51.11-1.34.25-2.79,1.03-3.92.63-.78,1.88-.73,2.4.16.35.6.2,1.31-.24,1.75-.19.57-.29,1.17-.34,1.77-.13,10.11,1.37,23.69,12.15,27.9,5.52,1.95,11.45,1.22,16.86-.65.73-.2,1.51.25,1.7.97.21.75-.25,1.48-.97,1.7-4.35,1.55-8.95,2.54-13.57,1.82Z"/>
      <path d="m9.33,62.68s.03-.09.05-.14c.02,0,.04-.02.06-.02h0c0,.15-.01.29-.02.43-.03-.09-.06-.17-.1-.26Z"/>
      <path d="m44.4,45.31c-4.76-6.5-10.23-12.42-16.01-18.03-3.72-3.49-7.38-7.16-11.63-10.01-.69-.36-.84-1.38-.27-1.93.68-.69,1.75-.2,2.41.25,7.89,5.48,14.78,12.29,21.4,19.21,2.08,2.3,4.01,4.72,5.71,7.31.68,1.01,1.85,2.44.55,3.47-.66.51-1.64.39-2.16-.28Z"/>
      <path d="m38.03,31.66c0-2.26.8-6.08-1.98-6.95-1.49-.23-3.16.23-4.26,1.27-.22.54-1.07.55-1.28-.01-.23-.66.38-1.25.81-1.66,6.68-5.14,10.63.73,9.36,7.54-.21,1.61-2.68,1.45-2.66-.18Z"/>
      <path d="m31.94,62.48c-1.07-4.25-1.9-8.57-2.06-12.96.21-2.09,2.96-1.61,2.72.47.2,3.99,1.2,7.86,2.19,11.71.47,1.88-2.31,2.65-2.86.79Z"/>
      <path d="m16.15,61.46c-1.19-.33-2.01-1.66-1.63-2.87,1.83-5.18,2.86-10.87,5.92-15.49,1.98-2.78,5.51,1,2.57,2.77,0,0,0,0,0,0-1.72,4.52-2.71,9.3-3.98,13.96-.31,1.23-1.67,1.96-2.87,1.63Z"/>
      <path d="m15.57,63.97c-3.26-.14-6.5-.55-9.75-.62-2.11-.56-1.79-3.78.39-3.9.57,0,1.14.02,1.72,0,7.56.53,15.11.52,22.68.29,5.36.06,10.72-.07,16.02-.92.88-.11,1.72.51,1.84,1.4.13.92-.52,1.66-1.4,1.84-2.28.46-4.56.91-6.88,1.14-8.19.48-16.42.92-24.63.77Z"/>
      <path d="m47.14,30.59c-.55-.08-.93-.6-.87-1.14.24-2.22.67-4.19.33-6.34-1.07-5.94-7.83-9.78-13.49-8.1-.77.19-1.76.75-2.2-.2-.19-.45.02-1.05.5-1.22,8.78-3.51,19.25,3.82,17.32,13.49-.33,1.09.03,3.58-1.58,3.5Z"/>
      <path d="m57.08,33.59c-.67-.09-1.17-.74-1.07-1.41.37-2.38.72-4.77.66-7.18.23-10.63-6.26-19.54-16.67-22.03-2.04-.41-4.15-.45-6.21-.12-.83.3-1.94.26-2.21-.76C31.11-.27,35.47.21,36.93,0c6.46-.04,12.6,3.54,16.89,8.19,3.33,4.11,5.51,9.32,5.74,14.63.17,3.33-.16,6.67-1.1,9.87-.16.6-.77.99-1.38.91Z"/>
    </g>
  </g>
</svg>