<?xml version="1.0" encoding="UTF-8"?>
<svg id="Ebene_2" data-name="Ebene 2" xmlns="http://www.w3.org/2000/svg" viewBox="0 0 64 64">
  <defs>
    <style>
      .cls-1 {
        fill: none;
      }
    </style>
  </defs>
  <g id="Ebene_1-2" data-name="Ebene 1">
    <g>
      <g>
        <path d="m3.8,34.43c-5.11-1.6-4.37-6.54-1.84-10.16.26-4.34,5.02-8.52,8.36-10.94,8.14-5.92,18.62-7.22,28.43-6.98,6.54.94,13.66,1.57,19.21,5.47,4.94,3.22,8.88,11.64,3.35,16.04-2.53,1.52-5.55.46-7.86-.95-1.44-.7-2.9-1.36-4.2-2.3-3.32-2.15-7.4-3.68-11.38-2.72-4.77.86-9.16,2.83-13.1,5.63-5.39,3.1-11.25,7.33-17.62,7.33-1.1,0-2.21-.13-3.35-.41Zm2.16-10.7c.16.44.16.93-.04,1.37-1.19,3.07-3.56,5.53,1.66,5.12,6.85-.57,12.35-5.44,18.23-8.57,4.6-2.67,10.14-3.99,15.44-4.08,3.55.25,7.18,1.64,10.06,3.58,1.62,1.19,3.5,1.92,5.27,2.84.77.38,1.64.74,2.5.44h0c2.12-5.14-3.77-9.57-8.04-11.14-8.46-2.71-16.99-3.54-25.66-1.89.03,0,.06-.01.09-.02.05-.01.1-.02.15-.03-7.88,1.23-15.44,5.45-19.66,12.36Z"/>
        <path d="m28.86,57.31c-5.25-4.98-10.13-10.24-14.99-15.57-.67-.91-2.3-1.41-2.03-2.74.2-.97,1.43-1.36,2.19-.75,4.35,3.8,7.8,8.55,12.09,12.44,1.55,1.51,3.12,3,4.69,4.5.57.54.63,1.45.09,2.03-.26.29-.64.45-1.02.46-.05,0-.09,0-.14,0-.32-.02-.64-.14-.87-.37Z"/>
        <path d="m41.58,55.67c-.76-.38-.98-1.4-.5-2.08,1.94-3.09,3.92-6.15,5.85-9.25,2.32-3.73,4.24-7.68,6.43-11.49.86-1.47,3.01-.16,2.09,1.28-1.63,2.64-2.92,5.46-4.42,8.17-1.41,2.58-2.91,5.12-4.43,7.64-1.03,1.71-2.06,3.43-3.1,5.14-.24.46-.72.74-1.22.76-.04,0-.09,0-.13,0-.2,0-.39-.06-.57-.16Z"/>
        <path d="m31.02,46.65c-1.61-3.36-2.82-6.89-4.48-10.22-.58-1.35-1.55-2.56-1.95-3.97-.06-.92,1.3-1.25,1.66-.39.78,1.24,1.61,2.44,2.32,3.73,1.81,3.14,3.22,6.49,4.87,9.72.47,1.02-.36,1.86-1.22,1.89-.04,0-.08,0-.12,0-.42-.02-.84-.25-1.08-.75Z"/>
        <path d="m38.44,47.96c-.76-.17-1.19-.93-1.05-1.68.39-1.95.83-3.94,1.41-5.83,1.05-3.62,2.34-7.28,2.91-11,.15-.85-.17-2.13.99-2.34.54-.1,1.09.23,1.25.76.22,1.53-.14,3.08-.37,4.58-.76,4.02-2.06,7.92-2.92,11.92-.4,1.21-.24,3.55-1.82,3.62-.05,0-.11,0-.16,0-.07,0-.15-.01-.24-.02Z"/>
      </g>
      <rect class="cls-1" width="64" height="64"/>
    </g>
  </g>
</svg>