<?xml version="1.0" encoding="UTF-8"?>
<svg id="Ebene_2" data-name="Ebene 2" xmlns="http://www.w3.org/2000/svg" viewBox="0 0 64 64">
  <g id="Ebene_1-2" data-name="Ebene 1">
    <g>
      <path d="m3.61,58.72c-1.08-.06-1.99-.86-1.99-1.99,0-.16.02-.31.06-.46-2.45-1.98-1.5-10.89-1.48-14.04.45-8.47.4-16.95.5-25.42-.08-13.75-.24-12.09,12.83-10.82,12.57.74,25.14-.12,37.7-.56,8.29-.48,9.58-.94,9.8,8.19.1,7.37.91,14.19,1.82,21.41.5,4.19.89,8.39,1.07,12.61.08,1.74.26,3.63-.4,5.28-2.25,4.38-8.12,2.75-12.11,2.73-2.49-.13-4.99-.11-7.47.16-7.5,1.02-15.02,1.79-22.58,2.24-5.9.38-11.82,1.03-17.74.66Zm6.32-3.93c8.21-.35,16.43-.84,24.61-1.62,4.29-.47,8.54-1.34,12.86-1.49,3.95-.4,8.15.86,11.97-.29-.18-10.55-2.28-20.97-2.75-31.5-.21-3.59-.02-7.21-.41-10.78-10.66-.42-21.33.49-31.99.4-4.19.01-8.38-.12-12.55-.5-2.55-.15-5.11-.89-7.66-.7-.15,8.43.25,16.87.03,25.31.16,7.21-1.84,14.19,0,21.14,1.96.07,3.92.09,5.88.03Z"/>
      <path d="m10.65,32.85c-2.46-.22-4.79-1.58-6.19-3.61-.58-1.58,1.12-1.88,2.13-.98,6.97,5.55,21.77-4.4,22.39-12.36.04-2.62-.79-5.34.31-7.86.48-1.21,1.88-2.5,3.15-1.52,1.06.91.62,1.94-.09,2.88-.64,1.78-.2,3.68-.19,5.51-.1,9.91-12.3,18.08-21.51,17.94Z"/>
      <path d="m17.8,58.24c-1.46-.77.03-2.32.59-3.22.9-1.26,1.7-2.42,2.48-3.72,1.45-2.46,2.68-5.26,2.99-8.11.2-4.29-.95-9.13-5.31-10.89-1.76-.64-.49-3.16,1.07-2.11,5.69,2.13,7.49,8.93,6.57,14.4-.86,4.27-3.14,8.13-5.79,11.54-.8.7-1.3,2.52-2.6,2.09Z"/>
      <path d="m26.58,40c-2.07-1.19,1.72-4.68,2.62-5.84,3.41-3.1,7.53-5.69,11.99-6.98,3.88-1.08,7.91.38,11.1,2.61,2.54,1.74,4.35,4.65,7.55,5.28,1.8.45,1.44,3.28-.44,3.23-5.62-.31-8.51-6.47-14.01-7.33-4.46-.9-12.68,3.39-15.7,6.64-.95.89-1.41,3.25-3.11,2.39Z"/>
      <path d="m42.05,30.79c-.6-.35-.84-1.17-.46-1.77.7-1.09,1.51-2.48,2.09-3.55,3.06-5.48,1.17-11-3.48-14.79-.69-.52-1.23-1.9.02-2.03.33,0,.65.23.75.55.43.47.97.84,1.45,1.26,4.21,3.03,6.42,8.57,4.7,13.58-.73,2.33-2,4.45-3.39,6.43-.36.52-1.14.64-1.68.33Z"/>
      <path d="m48.64,52.67c-2.51-.69-5.2-1.31-7.14-3.16-4.95-5.29-3.21-13.69-.59-19.69.31-1.28,2.26-.93,2.09.39-.05.38-.2.76-.33,1.13-1.61,4.73-2.36,10.68.77,14.9,1.6,1.7,4.08,2.04,6.21,2.74,2.41.74,1.43,4.29-1.02,3.69Z"/>
      <path d="m38.06,30.78c-1.03-4.54-3.52-9.04-8.7-9.07-.9.07-1.98-.27-1.97-1.35.04-1.45,1.53-1.39,2.61-1.27,6.37.16,9.9,5.29,10.6,11.17.23,1.57-2.11,2.06-2.54.52Z"/>
      <path d="m26.35,38.85c-1.66.32-2.22-2.04-1.07-2.99-.79-.27-1.28-1.06-1.54-1.81-.42-.46-.9-.89-1.34-1.33-1.06.15-1.92-.91-1.74-1.93-1.25-1.83.73-3.51,2.53-2.54.98-.94,1.76-2.29,3.06-2.77,0,0,0-.01,0-.02-.73-1.23.13-2.53,1.09-3.32.77-.98,2.33-1.47,3.19-.33,1.79-1.54,4.4-.44,3.7,2.02,2.02-2.05,4.79-.38,3.71,2.33-.74,2.02-2.05,3.75-3.28,5.48-.63.92-1.4,2.11-2.68,1.88-1.36,1.17-2.38,3.02-4.17,3.55-.02.03-.04.06-.06.09-.01.01-.02.03-.03.04.21.85-.35,2.09-1.38,1.63Z"/>
      <path d="m32.87,33.19c-1.42-1.16.05-2.73,1.11-3.51,1.52-1.06,3-2.67,4.87-2.96,1.57.03,1.93,2.05.83,2.97-1.18,1.05-2.47,2.67-4.19,2.58-.53.98-1.54,1.73-2.62.93Z"/>
      <path d="m18.84,30.32c0-.94.79-1.73,1.73-1.73s1.73.79,1.73,1.73-.79,1.73-1.73,1.73-1.73-.79-1.73-1.73Z"/>
      <path d="m33.2,24c-.77-1.84,2.58-2.87,3.08-1.01.49,1.69-2.42,2.58-3.08,1.01Z"/>
      <path d="m24.9,45.14c-2.4-1.2,2.51-7.99,3.88-9.12.26-.51.94-.69,1.39-.33.55.42.36,1.1-.04,1.55-1.31,1.8-2.06,3.9-2.97,5.92-.37.91-1.02,2.47-2.26,1.99Z"/>
    </g>
  </g>
</svg>