<?xml version="1.0" encoding="UTF-8"?>
<svg id="Ebene_2" data-name="Ebene 2" xmlns="http://www.w3.org/2000/svg" viewBox="0 0 64 64">
  <g id="Ebene_1-2" data-name="Ebene 1">
    <g>
      <path d="m35.22,57.05c-3.14-.18-6.16-1.1-9.09-2.21-1.59-.75-5.23-1.09-4.18-3.61-6.1-1.69-12.95-2.06-17.94-6.35-8.42-7.11-2.32-18.41,6.7-21.3-.36-6.25,8.8-12.21,13.9-14.43,3.76-1.39,8.27-3.24,12.19-1.57,2.69,1.4,2.56,4.78,1.2,7.1,6.94-.32,14.67-1.44,20.55,3.2,7.39,5.76,2.98,15.13-3.58,19.44,4.49-.47,11.09,2,8.42,7.51-2.08,3.43-5.86,5.39-9.24,7.33-5.77,3.12-12.29,5.27-18.92,4.89Zm4.15-2.93c4.79-.32,9.4-1.89,13.59-3.98,2.81-1.61,8.78-4.22,8.97-7.84-1.22-4.26-9.21-2.52-12.53-2.18-1.38.18-1.79-1.84-.46-2.22.84-.23,1.61-.63,2.4-.98,4.46-2.29,8.88-6.55,8.86-11.85-.19-3.79-3.46-6.43-6.84-7.53-4.47-1.59-9.26-.89-13.87-.47-1.47.13-3.73.14-4.09-1.69-.25-1.62,1.67-3.14.76-4.74.07.09.11.18.14.29-.08-.24-.29-.5-.46-.64-5.93-2.19-20.62,6.32-22.01,12.47,3.41-.83,9.55.74,8.9,5.16-.51,1.84-2.46,2.71-4.23,2.78-2.65.07-5.11-1.65-6.53-3.8-9.27,3.23-12.46,13.23-2.44,18.03,4.42,2.1,9.32,2.89,14,4.26.24.03.48.09.73.08.85-.02,1.46.98,1.04,1.72,4.44,1.97,9.17,3.62,14.09,3.14Zm-20.94-26.57c.37-.03.75-.1,1.06-.32-1.08-1.03-2.67-1.26-4.11-1.1.81.79,1.89,1.44,3.05,1.42Z"/>
      <path d="m30.24,29.85c0-1.07.9-1.97,1.97-1.97s1.97.9,1.97,1.97-.9,1.97-1.97,1.97-1.97-.9-1.97-1.97Z"/>
      <path d="m40.23,28.67c0-1.18.99-2.17,2.17-2.17s2.17.99,2.17,2.17-.99,2.17-2.17,2.17-2.17-.99-2.17-2.17Z"/>
      <path d="m33.58,46.54c-1.97-1.35-3.32-3.73-2.93-6.15-.01-1.09,1.37-1.66,2.2-1.02.47.36.65,1.01.45,1.56-.03.22.18.77.25.88,3.04,4.91,6.61-.94,8.39,2.46.89,2.47-2.35,3.15-4.14,3.39-1.5.17-2.99-.25-4.23-1.11Z"/>
      <path d="m27.03,42.16c-1.07-.08-2.46-.68-2.5-1.9-.04-1.36,1.87-1.94,2.6-.8,2.62-.4,4.96-1.88,7.4-2.86.78-.34,1.71.06,2.04.83.34.81-.07,1.67-.83,2.04-2.76,1.2-5.63,2.73-8.71,2.69Z"/>
    </g>
  </g>
</svg>