<?xml version="1.0" encoding="UTF-8"?>
<svg id="Ebene_2" data-name="Ebene 2" xmlns="http://www.w3.org/2000/svg" viewBox="0 0 64 64">
  <g id="Ebene_1-2" data-name="Ebene 1">
    <g>
      <path d="m31.6,15.03h0c-1.22-2.29-4.27-3.45-6.44-4.42-.57-.08-1.05-.5-1.21-1.05-.3-.99.63-2.02,1.64-1.83,2.43.54,4.84,1.7,6.88,3.15,1.49,1.05,3.65,4.25,1.1,5.29-.14.04-.28.06-.42.06-.7,0-1.35-.48-1.57-1.19Z"/>
      <g>
        <path d="m16.37,34.62C6,30.83,5.56,15.33,11.14,7.37c7.36-10.22,26.78-10.19,31.47,2.52,2.58,7.11.93,16.27-6.62,19.48-1.55.6-3.12,1.92-4.84,1.66-2.34,3-6.14,4.41-9.91,4.41-1.67,0-3.34-.28-4.87-.82Zm4.36-28.71c-6.41,1.86-9.52,8.73-9.03,15,.01,7,4.18,12.14,11.51,11.58,2.32-.15,4.7-.91,6.38-2.58-.77-1.2-.17-2.94,1.1-3.48,2.06-1.15,4.34-2.08,5.96-3.86,2.21-2.53,2.19-6.16,1.59-9.28-1.04-5.7-6.56-8.36-11.99-8.36-1.92,0-3.83.33-5.52.99Z"/>
        <path d="m43.33,63.54c-2.53-3.38-2.57-7.96-4.5-11.54-3.38-6.25-8.76-11.18-11.48-17.77-.7-.31-.5-1.36.27-1.43.73-.08,1.23.57,1.54,1.15,2.83,5.27,7.22,9.45,10.61,14.35,2.77,3.59,3.52,8.13,4.94,12.32,1.94-2.02,4.35-3.49,6.6-5.13-2.35-1.8-3.98-4.31-5.61-6.74-2.59-4.35-5.82-8.34-7.96-12.94-.97-2.24-1.5-4.65-2.31-6.95-.36-.83-.83-1.96.17-2.54,2-.9,2.48,2.32,3.13,3.59,1.05,3.54,2.55,6.91,4.76,9.88,3.62,4.76,5.71,10.61,10.69,14,1.53-.46,2.28.51,2.23,1.49-.05.85-.73,1.71-2.07,1.59-2.46,1.63-4.86,3.12-7.1,4.99-.82.72-1.77,2.14-2.86,2.14-.33,0-.68-.13-1.04-.46Z"/>
      </g>
    </g>
  </g>
</svg>