<?xml version="1.0" encoding="UTF-8"?>
<svg id="Ebene_2" data-name="Ebene 2" xmlns="http://www.w3.org/2000/svg" viewBox="0 0 64 64">
  <defs>
    <style>
      .cls-1 {
        fill: none;
      }
    </style>
  </defs>
  <g id="Ebene_1-2" data-name="Ebene 1">
    <g>
      <g>
        <path d="m27.03,63.76c-3.04-.32-6.06-1.17-8.55-2.99-1.52-.91-2.59-2.55-4.17-3.32-8.9-4-10.44-15.87-6.75-24.02,1.71-3.95,4.28-7.52,7.49-10.37,5.81-5.09,13.68-7.67,21.34-7.88,10.29-.27,19.28,8.14,21.2,17.96,4.63,17.82-13.63,32.96-30.56,30.61Zm3.28-4.81c13,.26,25.43-11.55,21.97-24.93-3.67-16.44-20.44-17.34-32.77-9.53-6.22,4.41-10.98,11.86-10.39,19.68.23,4.09,1.86,8.37,5.52,10.51,2.43-2.64,5.27,2.01,7.68,2.81,2.48,1.19,5.28,1.48,7.99,1.46Z"/>
        <path d="m32.21,34.9s-.04-.04-.06-.07c.12.12.25.23.38.34l-.33-.28Z"/>
        <path d="m32.17,34.86s.02.01.03.02c0,0-.02-.01-.03-.02Z"/>
        <path d="m29.59,32.98c.08.05.16.1.23.14.02.01.04.03.06.04-.1-.06-.2-.12-.29-.18Z"/>
        <path d="m31.59,27.47c.06-.07.13-.15.19-.23-.07.08-.14.17-.2.25,0,0,0-.01.01-.02Z"/>
        <path d="m31.41,16.12c-.49-.34-.6-1.07-.72-1.61-.31-1.54-.76-3.06-.99-4.61-.31-3.55,5.05-3.55,4.74,0-.41,1.3-.92,7.46-3.03,6.23Z"/>
        <path d="m31.73,6.17c-2.81-.13-5.62-.63-8.33-1.35-1.33-.32-1.71-2.13-.62-2.96,1.25-.85,2.87-.7,4.31-.8,4.6-.17,8.55-.59,13.02-1.05,1.33-.14,2.6.64,2.97,1.96.38,1.38-.45,2.98-1.88,3.32-3.09.79-6.28,1.07-9.45.88Z"/>
        <path d="m12.86,24.8c-5.11-2.51,3.32-8.12,6.07-8.84,2.65-.81,5.09,2.33,3.61,4.69-1.63,2.33-5.04,1.8-7.29,3.28-.53.72-1.49,1.13-2.38.86Z"/>
        <path d="m50.02,23.59c-1.06-2.03-2.45-3.9-4.43-5.1-1.67-2.06,1.41-3.55,3.22-2.87,2.64.76,5.1,2.49,6.46,4.91,1.93,3.49-3.16,6.47-5.25,3.07Z"/>
        <path d="m30.36,41.05c.2-1.63,1.66-2.81,2.53-4.13,2.93-3.48,5.66-7.23,9.31-10.01,2.67-1.96,5.65,1.89,3.08,4-2.32,1.84-4.69,3.64-6.92,5.59-1.33.72-7.55,7.95-8,4.55Z"/>
      </g>
      <rect class="cls-1" width="64" height="64"/>
    </g>
  </g>
</svg>