<?xml version="1.0" encoding="UTF-8"?>
<svg id="Ebene_2" data-name="Ebene 2" xmlns="http://www.w3.org/2000/svg" viewBox="0 0 64 64">
  <defs>
    <style>
      .cls-1 {
        fill: none;
      }
    </style>
  </defs>
  <g id="Ebene_1-2" data-name="Ebene 1">
    <g>
      <g>
        <path d="m13.54,56.72c-3.66-.15-7.32-.47-10.98-.47-3.4-.07-3.43-5.15,0-5.21,2.1.04,4.19.2,6.29.35,17.43.69,34.9-.34,52.3-1.4,3.52-.06,3.92,5.34.39,5.78-10.86.82-21.76,1.15-32.66,1.15-5.12,0-10.23-.08-15.34-.2Z"/>
        <path d="m21.59,39.88c2.13-.32,3.9-1.85,5.53-3.16,3.65-3.33,6.68-7.25,9.68-11.15.87-1.14,2.5-1.45,3.74-.73,3.54,2.39-.45,5.95-2.15,8.18-4.6,4.78-9.81,10.58-16.8,11.16-2.81-.08-2.82-4.25,0-4.29Z"/>
        <path d="m49.29,27.75c-2.06-4.72-2.59-9.9-4.36-14.71-2.66,1.49-5.34,2.96-8.02,4.43-1.98,1.14-5.92,3.06-6.33-.6.04-2.04,2.46-2.34,3.73-3.46,2.88-1.96,5.73-3.96,8.77-5.66,6.29-3.29,8,6.18,9.19,10.45.57,2.39,1.39,5.2,2.2,7.36.83,2.22-.92,3.89-2.69,3.89-.97,0-1.94-.5-2.49-1.7Z"/>
      </g>
      <rect class="cls-1" width="64" height="64"/>
    </g>
  </g>
</svg>