<?xml version="1.0" encoding="UTF-8"?>
<svg id="Ebene_2" data-name="Ebene 2" xmlns="http://www.w3.org/2000/svg" viewBox="0 0 64 64">
  <g id="Ebene_1-2" data-name="Ebene 1">
    <g>
      <path d="m2.51,52.43c-3.98-.87-2.02-5.8-2.06-8.64.41-4.39.41-8.81.44-13.22.01-5.11.13-10.21.1-15.31-.25-.83.09-1.82.82-2.33,1.13-.82,2.84-.14,3.13,1.22-.22,11.51.88,23.19-.86,34.65,5.19-.65,10.34-1.72,15.59-1.94,6.72-.42,13.46-.28,20.19-.39,7.26,0,14.15-1.28,21.17-2.85-1.88-9.55-1.4-19.39-1.98-29.08-5.11-.12-10.25-.32-15.35.12-7.58.77-15.1,2.1-22.71,2.48-5.05.4-10.22.33-14.97-1.65-1.76-.78-.7-3.45,1.16-2.75,4.74,1.94,9.88,1.84,14.89,1.49,5.49-.36,10.95-1.13,16.4-1.85,5.8-.85,11.66-.99,17.51-.84,1.31.03,2.63.08,3.94.02.59-.05,1.19-.04,1.63.43.98,1.17.49,2.84.58,4.25,0,1.86.03,3.72.1,5.57.41,7.01.1,14.14,1.59,21.04.45,1.48.1,3.91-1.96,3.46-3.64,1.03-7.28,2.17-11.05,2.66-10.13,1.56-20.41.69-30.61,1.36-3.83.27-7.65.71-11.43,1.42-2.07.31-4.16,1.05-6.27.69Z"/>
      <path d="m39.61,19.6c0-1.16.97-2.13,2.13-2.13s2.13.97,2.13,2.13-.97,2.13-2.13,2.13-2.13-.97-2.13-2.13Z"/>
      <path d="m39.8,26.72c0-1,.83-1.83,1.83-1.83s1.83.83,1.83,1.83-.83,1.83-1.83,1.83-1.83-.83-1.83-1.83Z"/>
      <path d="m41.17,34.99c0-1.07.9-1.97,1.97-1.97s1.97.9,1.97,1.97-.9,1.97-1.97,1.97-1.97-.9-1.97-1.97Z"/>
      <path d="m42.43,41.22c0-.76.64-1.4,1.4-1.4s1.4.64,1.4,1.4-.64,1.4-1.4,1.4-1.4-.64-1.4-1.4Z"/>
      <path d="m16.45,25.98c-1.15-.03-2.29-.08-3.44-.08-.48,0-.89-.4-.89-.89s.4-.89.89-.89c2.6,0,5.21.02,7.76-.16,2.78-.19,5.52-.5,8.31-.62.48-.03.91.39.98.85.07.51-.31,1.06-.84,1.11-4.25.35-8.5.86-12.77.68Z"/>
      <path d="m23.75,32.77c-2.87-.11-5.71-.61-8.57-.83-1.01-.17-2.91.4-2.83-1.18.09-.78.95-1.02,1.63-1,2.52-.09,5.11.25,7.53.38,3.16.26,6.3-.23,9.4-.8.71-.13,1.4.44,1.49,1.13.11.72-.43,1.39-1.13,1.5-2.48.46-4.99.91-7.52.81Z"/>
      <path d="m23.39,40.21c-2.53-.12-5.04-.47-7.57-.47-.66-.07-1.89.16-2.05-.7,0-.27.23-.5.5-.5,2.71-.87,5.52-1.18,8.36-.97,1.98.09,3.97.46,5.95.14.52-.07,1.04.26,1.18.78.43,2.31-4.94,1.66-6.36,1.72Z"/>
    </g>
  </g>
</svg>