<?xml version="1.0" encoding="UTF-8"?>
<svg id="Ebene_2" data-name="Ebene 2" xmlns="http://www.w3.org/2000/svg" viewBox="0 0 64 64">
  <defs>
    <style>
      .cls-1 {
        fill: none;
      }
    </style>
  </defs>
  <g id="Ebene_1-2" data-name="Ebene 1">
    <g>
      <g>
        <path d="m2.31,35.51c-4.27-3.07-1.73-8.7.56-12.23,2.01-3.41,4.5-6.53,7.62-9,11.27-9.58,39.76-13.73,49.65-.51,3,3.69,5.11,9.22,3.04,13.8-1.02,1.89-3.52,2.94-5.58,2.73-2.66-.22-3.82-2.82-5.39-4.59-3.3-3.63-8.16-5.01-12.93-5.3-7.56-1.41-15.32,1.53-20.86,6.69-3.36,2.47-5.31,6.99-9.66,7.54-.96,1.11-2.37,1.74-3.78,1.74-.93,0-1.86-.28-2.66-.88Z"/>
        <path d="m25.41,58.18c-5.22-5.38-10.04-11.04-14.83-16.77-.65-.97-2.31-1.55-1.98-2.93.25-.99,1.53-1.35,2.29-.68,4.34,4.13,7.7,9.19,11.97,13.4,1.53,1.64,3.1,3.25,4.66,4.86.57.58.59,1.53,0,2.11-.29.28-.68.43-1.08.43s-.76-.14-1.03-.43Z"/>
        <path d="m38.64,57.04c-.77-.43-.95-1.49-.42-2.17,2.14-3.11,4.33-6.2,6.46-9.32,2.57-3.76,4.72-7.76,7.16-11.61.95-1.48,3.12-.03,2.1,1.42-1.8,2.66-3.26,5.52-4.93,8.26-1.57,2.61-3.24,5.17-4.92,7.71-1.14,1.73-2.28,3.46-3.43,5.18-.27.46-.78.73-1.29.73-.25,0-.5-.06-.72-.2Z"/>
        <path d="m28.11,47.25c-1.51-3.55-2.61-7.25-4.19-10.77-.54-1.43-1.49-2.72-1.85-4.19-.02-.96,1.4-1.23,1.74-.34.75,1.31,1.56,2.6,2.24,3.96,1.73,3.33,3.05,6.86,4.61,10.27.45,1.07-.45,1.91-1.34,1.91-.48,0-.96-.25-1.21-.83Z"/>
        <path d="m35.73,48.92c-.78-.21-1.2-1.01-1.01-1.78.49-2.01,1.03-4.04,1.72-5.97,1.25-3.7,2.74-7.44,3.49-11.26.19-.88-.09-2.22,1.12-2.38.57-.08,1.12.28,1.27.84.16,1.59-.28,3.18-.59,4.73-.97,4.13-2.48,8.11-3.55,12.21-.46,1.23-.4,3.66-2.04,3.66-.13,0-.26-.01-.41-.05Z"/>
      </g>
      <rect class="cls-1" width="64" height="64"/>
    </g>
  </g>
</svg>