<?xml version="1.0" encoding="UTF-8"?>
<svg id="Ebene_2" data-name="Ebene 2" xmlns="http://www.w3.org/2000/svg" viewBox="0 0 64 64">
  <defs>
    <style>
      .cls-1 {
        fill: none;
      }
    </style>
  </defs>
  <g id="Ebene_1-2" data-name="Ebene 1">
    <g>
      <g>
        <path d="m5.63,49.12c4.25-.75,8.58-.95,12.88-1.3,12.94-.82,25.84-3.04,38.84-2.39,3.03.12,3.09,4.55,0,4.66-17.23.89-34.46,1.79-51.71,2.08-1.71-.15-1.73-2.89-.01-3.04Z"/>
        <path d="m32.99,27.67c-2.54-6.96-7.57-12.02-15.2-12.64-1.35-.17-2.64-.25-3.99-.23-.8,0-1.47-.67-1.47-1.47,0-1.21,1.22-1.61,2.25-1.47,8.78-.35,17.94,3.31,21,12.14.51,1.47,1.77,3.75-.2,4.64-.22.09-.46.14-.69.14-.71,0-1.4-.42-1.7-1.11Z"/>
        <path d="m36.84,37.66c-2.86-.93-5.35-2.82-8.05-4.14-1.28-.82-6.57-2.86-3.57-4.56.43-.12.91.03,1.21.35,3.3,1.73,6.8,3.16,10.36,4.27,1.1-3.51,2.03-7.1,4.1-10.2,1.23-2.12,4.57-.46,3.59,1.8-.69,1.45-1.34,2.91-1.91,4.41-1.13,2.83-1.38,8.09-5.24,8.09-.16,0-.31,0-.48-.02Z"/>
      </g>
      <rect class="cls-1" width="64" height="64"/>
    </g>
  </g>
</svg>