<?xml version="1.0" encoding="UTF-8"?>
<svg id="Ebene_2" data-name="Ebene 2" xmlns="http://www.w3.org/2000/svg" viewBox="0 0 555.17 580.69">
  <g id="Ebene_1-2" data-name="Ebene 1">
    <g>
      <path d="m173.99,511.69c-6.24-.11-13.03.16-19.15-.68-2.94-.32-6.36.2-8.89-1.57-7.24-.96-14.55-1.61-21.79-2.68-8.68-1.3-17.22-4.01-24.82-8.45-18.25-10.82-34.97-24.73-46.92-42.41-15.84-23.39-29.88-49.43-33.03-77.9-.45-6.87-.57-15.09-.29-23.89.02-.01.05-.02.07-.03.77-.33,1.46-.75,2.09-1.24.47-.25.92-.52,1.35-.85.77-.6,1.38-1.33,1.98-2.1.19-.24.36-.5.53-.77-.6,10.62-.57,21.27.49,31.83,2.86,20.11,11.23,39.04,21.49,56.43,5.44,8.97,11.11,17.9,17.96,25.88,5.61,6.45,11.88,12.41,18.51,17.78,9.29,6.91,18.47,13.84,29.38,17.74,10.68,3.61,22.1,4.39,33.17,5.87,1.24-1.11,2.91-.46,4.38-.33,1.65.05,3.3.05,4.95.16,4.39.52,8.8.49,13.21.46,1.04,0,2.08-.02,3.12-.02s2.09,0,3.13.03c16.48.63,33-.71,49.14-4.04,9.68-1.94,19.73-4.94,28.37-9.51-.09.05-.18.09-.27.13,9.46-4.91,18.91-9.94,27.75-15.91,10.7-7.7,20.5-16.63,29.74-26.02,9.31-10.27,16.44-22.8,22.59-35.02h-.01c11.22-22.82,19.57-48.35,16.15-74.03-.39-3.12-1.02-6.19-1.77-9.23,1.4.72,2.95,1.11,4.5,1.11.85,0,1.7-.12,2.52-.36,3.11,14.89,3.04,30.1-.55,45.15-3.25,14.72-8.92,29.1-15.69,42.41-4.91,9.28-9.79,18.69-16.31,26.96-6.33,8.67-14.36,15.89-22.46,22.88-5.32,4.66-10.8,9.14-16.76,12.99-11.82,7.4-24.01,14.49-36.98,19.68-19.87,7.02-41.12,9.7-62.18,9.7-2.91,0-5.81-.05-8.7-.15Z"/>
      <path d="m252.08,491.55s.04-.02.05-.03c-.03.02-.06.03-.09.05.01,0,.02-.01.04-.02Z"/>
      <path d="m74.43,528.01c-1.17-.32-1.83-1.54-1.53-2.7.89-3.78,2.29-7.39,3.43-11.09,2.61-9.31,5.49-19.2,1.27-28.36-.86-1.91-1.6-5.16,1.38-5.36,1.13,0,2.27,1,2.19,2.19.55,2.54,2.19,4.82,2.48,7.48,1.39,7.27.02,14.57-1.94,21.59-1.18,5.01-3.21,9.75-4.58,14.71-.27.96-1.18,1.61-2.13,1.61-.19,0-.38-.03-.57-.08Z"/>
      <path d="m279.51,524.5c-3.23-5.46-3.19-11.86-3.44-17.95-.56-7.43-.88-14.99.32-22.36.54-2.88,4.74-2.09,4.16.78-1.48,10.52-.01,21.27.88,31.79.48,2.09,1.39,4.04,2.27,5.98.71,1.77-.72,3.13-2.16,3.13-.79,0-1.58-.4-2.03-1.36Z"/>
      <path d="m173.45,558.77c-7.98-.58-15.93-1.6-23.9-2.34-10.39-1.88-20.81-3.62-30.91-6.78-8.24-2.02-16.02-5.39-23.76-8.8-3.85-1.46-7.25-3.8-10.48-6.3-3.36-2.32-6.55-4.89-9.98-7.1-.84-.52-1.52-1.2-1.8-2.12-.82-3.06,3.6-4.68,4.93-1.79,6.79,4.24,12.69,10.1,20.27,12.96,4.54,1.88,9.02,4.09,13.63,5.68,7.18,2.35,14.51,4.25,21.85,6.02,5.39.89,10.78,1.79,16.14,2.86,5.48.81,11.05.87,16.54,1.66,7.36.79,14.79,1.04,22.19.72,6.34-.43,12.52-1.97,18.8-2.87,8.32-.82,15.81-4.2,23.75-6.32,4.48-1.79,9.66-3.33,14.12-4.62,7.75-2.62,15.18-6.09,21.78-10.95,4.21-2.43,7.93-5.55,11.88-8.36,2.51-1.86,5.64,1.52,3.41,3.87-4.15,4.07-9.38,7.1-14.23,10.18-6.71,4.87-14.51,7.93-22.29,10.68-5.07,1.35-9.98,3.17-14.95,4.87-5.38,1.41-10.54,3.5-15.9,4.96-8.13,1.32-16.21,3.17-24.42,3.96-2.43.17-4.87.24-7.31.24-3.12,0-6.25-.12-9.36-.32Z"/>
      <path d="m204.36,529.55c-13.12-.15-26.27-.28-39.36-1.32-10.74-1.02-21.39-3.04-31.96-5.14-13.01-2.06-25.8-5.46-37.5-11.62-3.8-1.62-7.47-3.49-10.84-5.9-1.64-1.08-4.36-2.07-3.82-4.48.44-1.74,2.84-2.23,3.94-.86,2.68,1.41,5.14,3.19,7.84,4.54,5.9,2.52,11.64,5.43,17.67,7.66,8.98,3.3,18.45,4.62,27.73,6.69,9.29,1.44,18.52,3.43,27.91,4.09,5.2.33,10.4.64,15.61.82,9.55.43,19.14.48,28.69.21,8.76-.64,17.4-2.32,25.94-4.31,5.81-1.65,11.66-3.42,17.15-5.97,4.36-2.37,8.56-5.09,12.37-8.29,2.32-2.11,4.39-4.47,7-6.26,2.45-1.9,5.69,1.58,3.41,3.88-3.73,3.49-7.06,7.57-11.46,10.23-6.76,4.98-14.54,8.07-22.57,10.32-12.08,3.26-24.59,5.72-37.14,5.72h-.61Z"/>
      <path d="m273.56,501.83c-1.47-1.1-.51-2.94.5-3.8.57-.65,1.03-1.28,1.93-1.39,2.17-.35,3.36,2.59,1.63,3.9-.8.7-1.85,1.7-2.93,1.7-.38,0-.75-.12-1.13-.41Z"/>
      <path d="m16.68,354.18c.23-4.95.4-10.19,2.61-14.71,1.43-3.48,4.14-6.25,5.9-9.46,0-3.12.45-6.77,3.26-8.67,2.91-2.06,7.13-.87,8.78,2.23,1.92,4.59,2.62,9.34,5.43,13.68,2.23-1.53,3.54-4.18,5.33-6.18,1.78-4.17.8-9.23,3.78-12.96,1.18-1.67,3.23-2.83,3.71-4.94.44-4.8,2.63-13.07,9.01-11.2,1.89.83,3.52,2.18,5.25,3.3,2.57,1.76,5.07,3.65,7.84,5.1,3.87,1.46,7.11,3.72,9.35,7.25,2.84-.17,4.48-2.66,6.64-4.15,4.95-3.76,10.45.29,14.48,3.45,1.63,1.05,3.35,2.03,5.24,2.51,1.72.34,3.73.16,5.23.08,4.96-.45,9.64-.38,14.54.3,3.87.5,7.83.76,11.34,2.62,3.11-1.86,6.06-4.07,9.54-5.28,3.75-1.39,7.75-2.01,11.72-2.45,4.47-.28,9,.14,13.32-1.36,1.7-.54,4.04-.28,5.07-2,2.33-4.07,5.95-7.63,10.77-8.32,2.48-.52,5.16.02,7.4-1.26,2.54-2.08,4.12-5.72,7.65-6.3,2.68-.44,5.27.83,7.7,1.82,3.73,1.64,6.5,4.69,9.36,7.48,4.99,4.1,10.24,7.98,14.11,13.19,2.58-.62,5.05-1.7,7.68-2.15,3.63-.73,7.47-.65,10.9-2.18,2.18-.98,3.61-3.05,5.93-3.75,2.64-.94,5.43-1.42,8.22-1.68,1.78-.21,3.68-.1,5.35-.86,2.89-1.46,4.17-4.84,7.17-6.14,2.72-1.14,6.17-2.61,8.94-.88,3.86,2.66,7.81,5.29,11.26,8.47,4.1,4.11,6.84,9.32,10.21,13.96.57-2.24,2.2-3.95,3.53-5.76.71-1.44.93-3.08,1.35-4.62.58-3.78,3.65-8.41,7.71-5.22,1.44,1.46,2.09,3.47,2.78,5.36,2.53-1.57,5.44-.59,8.17-.39,1.41-.56,2.9-.23,4.25.36,1.72,1.14,2.04,3.38,3,5.08,1.79,2.93,3.29,6.04,4.12,9.39.73,2.99,2.08,6.11,1.58,9.23-.5,2.8-4.48,2.82-4.97,0-.29-1.73-.82-3.4-1.32-5.08-.78-2.55-1.52-5.12-2.62-7.54-1.06-1.95-2.27-3.82-3.02-5.91h0s-.04-.04-.06-.06c-1.1.32-2.23.21-3.35.09-.94-.1-1.88-.19-2.78-.03-1.19.55-1.85,1.8-3.14,2.16-3.1.79-4.42-2.74-5.15-5.09-.8,2.96-2.14,5.65-4.14,7.97-.95,1.27-.89,2.94-1.61,4.3-1.99,3.17-6.61,1.85-8.75-.48-1.6-1.67-2.59-3.81-3.88-5.71-2.05-2.83-4.07-5.77-6.6-8.2-3.11-2.53-6.46-4.75-9.69-7.14-1.59.35-3.71,1.04-4.68,2.37-3.01,3.85-7.48,6.13-12.37,6.17-2.67.27-5.37.68-7.84,1.75-2.61,1.88-5.31,3.72-8.52,4.42-5.2,1.16-10.52,1.7-15.55,3.59-5.57,1.86-7.88-3.64-11.29-6.73-3.27-2.75-6.58-5.45-9.82-8.23-3.04-3.22-6.46-6.27-10.95-7.12-6.11,6.35-6.33,6.77-15.24,7.52-1.32.27-2.55.88-3.57,1.76-2.57,2.62-3.96,6.67-7.9,7.61-3.76.88-7.42,2.23-11.3,2.46-4.48.05-8.96.21-13.35,1.21-3.92.77-7.41,2.68-10.7,4.89-1.52.98-3.21,1.9-5.07,1.71-1.41-.14-2.64-.79-3.93-1.31-2.07-.67-4.27-.74-6.41-1.05-4.01-.54-8.06-.87-12.11-.57-5.77.73-11.52.48-16.43-3.01-2.24-1.36-4.18-3.41-6.64-4.31-1.64.13-2.74,1.89-4.08,2.75-3.73,3.03-10.15,4.24-13.06-.47-1.53-2.77-4.49-3.75-7.16-5.08-3.93-2.14-7.4-5.04-11.17-7.4-1.56,2.77-1.08,6.2-2.72,8.95-1.22,2.53-4.18,3.99-4.57,6.93-.62,4.4-1.05,9.09-4.32,12.43-2.34,3.35-4.93,6.96-9.26,7.63-3.32.64-4.85-3.18-6.08-5.55-2-3.64-3.15-7.6-4.3-11.55-.59,2.04-.39,4.27-1.54,6.14-2.52,3.68-5.6,7.25-6.57,11.74-.55,3-.75,6.06-.8,9.11-.06,2.01-1.57,3.02-3.07,3.02s-3-1-3.05-3.02Z"/>
      <path d="m19.41,368.15c0-1.32,1.1-2.42,2.42-2.42s2.42,1.1,2.42,2.42-1.1,2.42-2.42,2.42-2.42-1.1-2.42-2.42Z"/>
      <path d="m81.61,395.78c-4.03-1.64-2.07-7.76-6.13-9.38-14.01-1.5-21.8-7.58-26.55-20.85-1.13-2.36-2.86-4.34-4.32-6.5-1.01-1.48-1.62-3.21-2.66-4.68-2.23,2.19-3.34,5.37-5.43,7.74-2.83,3.76-9.05,7.31-13.7,5.22-1.95-1.03-1.85-3.98-2.27-5.71-.67-3.91-2.09-7.91-1.59-11.9,0,0,0,0,0,0,.48-2.07,3.67-2.32,4.41-.3.64,4.35,1.48,8.67,2.62,12.93,8.24-.65,10.17-16.41,18.21-12.59,2.37,1.49,3.12,4.39,4.61,6.61,1.1,1.56,2.21,2.82,3.09,4.19,2.19,3.06,3.06,6.81,5.1,9.95,1.04,1.45,2.02,2.96,3.27,4.23,1.67.98,3.1,2.34,4.8,3.27,3.61,1.73,7.57,2.17,11.46,2.83,4.47,1.15,6.86,5.65,7.78,9.84,3.01-.81,5.73-2.47,8.57-3.71,2.92-1.15,5.87-2.21,8.81-3.3,5.96-2.03,12.29-2.46,18.43-3.74,4.07-1.18,7.99-2.01,11.19-4.62,1.93-1.48,3.31-4.54,6.1-4.26,1.65.23,2.57,1.74,3.27,3.09,2.9,5.78,7.93,7.42,13.9,8.41,3.76.57,7.68,1.05,11.45.53,5.16-1.77,9.64-5.02,14.38-.23,1.35.8,3.05.38,4.5.85,1.63.45,2.93,1.49,4.35,2.36,1.17.53,2.38.99,3.47,1.67,1.23-1.34,2.14-2.95,3.35-4.31,1.34-1.59,2.94-2.95,4.11-4.67,1.66-2.86,3.23-5.77,5.48-8.22,2.55-3.28,5.2-6.6,8.95-8.59,4.32-2.24,12.37-1.45,16.59.79,3.94,2.39,3.71,7.63,5.42,11.3,2.9,2.38,6.72,2.98,10.35,3.25,2.16.19,4.34.75,6.51.39,5.6-1.59,9.8-6.45,15.7-7.29,2.15-.44,4.32-.14,6.46.19.75.08,1.92-.49,2.4-.85,2.73-1.91,4.09-5.17,6.68-7.24,9.54-9.17,17.02-5.36,23.06,4.97.45.61.82,1.3,1.41,1.79.86.4,1.64.91,2.21,1.69,1.8,2.54,1.19,5.95.73,8.82,6.24-3.19,7.29-11.22,7.32-17.55-.63-2.94-1.71-5.78-1.95-8.82-1.77-8.18-.81-14.47,8.7-15.82,7.24-1.05,10.69-.12,11.16,7.91,2.19,1.1,4.64,1.54,7.08,1.54,1.25-1.44,1.74-3.43,2.5-5.16.67-2.17-.12-4.5.5-6.7.88-3.19,5.62-2.54,5.66.77-.16,2.71.05,5.47-.77,8.1-1.2,3.73-2.95,8.68-7.56,8.88-4.25-.07-10.67-.78-12.93-4.88-.62-1.52-.45-3.21-.88-4.77-2.51.21-5.55-.05-7.53,1.74.09-.1.17-.19.25-.29-1.76,1.79-.45,4.54-.28,6.71.34,4.74,2.73,9.19,1.91,13.98-.37,8.28-4.11,18.5-13.08,20.5-2.53.66-5.58-.62-6.04-3.38-.53-2.68.92-5.37.5-8.04-3.79-2.1-4.91-6.84-8.09-9.61-3.87-3.79-6.82-.52-10.07,2.09-2.35,2.09-3.58,4.75-6.03,6.69-3.42,2.95-6,2.77-8.68,2.6-2.18-.14-4.42-.29-7.24,1.25-9.84,5.9-11.16,7.38-22.89,5.48-4.61-.57-10.07-2.3-12.43-6.62-1.41-2.7-1.16-6.12-2.89-8.62-1.57-1.03-3.61-.97-5.43-1.2-1.64-.04-3.34-.21-4.93.27-1.71.78-3.21,2.03-4.53,3.35-1.75,2.19-3.56,4.34-5.24,6.58-2.15,3.89-4.39,7.65-7.72,10.67-2.23,2.59-4.1,6.56-8.07,6.32-1.23.02-2.3-.69-3.34-1.25-1.9-.68-3.62-1.68-5.3-2.78-1.25-.48-2.68-.26-3.98-.67-1.84-.37-3.29-1.6-4.68-2.79-2.34.12-4.28,1.56-6.46,2.23-1.68.55-3.45.75-5.21.72-9.79-.44-21.68-1.56-27.02-11.03-8.61,8.53-21.98,7.2-32.82,10.7-3.24,1.24-6.55,2.34-9.7,3.79-2.99,1.3-6.29,3.75-9.63,3.75-.9,0-1.8-.18-2.7-.6Z"/>
      <path d="m415.14,502.02c-1.5-.41-2.41-2.02-2-3.52.21-.75.7-1.34,1.32-1.7-4.11-3.99-8.32-7.87-12.57-11.71-10.75-10.52,6.72-17.54,14.55-21.65,3.22-1.52,6.92-2.4,10.43-1.51,3.31,1,6.52-.23,9.2-2.2,2.04-1.36,3.81-3.21,6.22-3.93,4.19-.9,8.65,1.02,12.89,1.28,4.21.56,8.2,1.93,12.22,3.22,3.6.87,6.82,2.62,9.27,5.42,2.24-.14,4.25-1.48,6.48-1.8,4.38-.89,8.37,1.61,12.38,2.94,9.28,2.45,16.68,7.47,13.48,18.18-2.61,6.18-11.12,4.03-16.45,5.74-8.41,2.01-16.57,5.08-25.14,6.35-6.7.7-13.28,2.04-19.86,3.43-5.64,1.02-11.37,1.39-17.09,1.61-3.2.04-6.43.5-9.63.5-1.91,0-3.82-.16-5.7-.68Zm-6.63-17.88c1.29,1.21,2.57,2.44,3.82,3.68,2.2,2.17,4.41,4.34,6.51,6.61.64.7.86,1.67.57,2.52,1.39.06,2.77.02,4.16-.05,7.88-.48,16.44-.38,24.08-1.9,3.91-.79,7.79-1.7,11.72-2.38,8.52-.91,16.77-3.07,24.95-5.55,4.19-1.19,8.42-2.29,12.76-2.75,2.04-.23,4.14-.23,6.12-.81,1.1-.34.91-1.84,1.09-2.76.25-2.86-1.66-5.36-4.17-6.54-2.54-1.21-5.28-1.89-7.9-2.89-2.76-.87-5.47-2.85-8.48-2.16-3.59,1.08-8.12,3.47-11.14-.06-1.16-1.27-2.44-2.41-4.11-2.93-5.57-1.77-11.13-3.65-16.98-4.25-2.72-.13-5.54-1.55-8.21-.85-3.92,2.49-7.66,5.82-12.47,6.32-2.4.34-4.73-.55-7.11-.59-2.5.22-4.79,1.4-7.02,2.47-3.22,1.73-6.47,3.46-9.52,5.48-1.15.84-2.41,1.67-3.12,2.94l-.02-.03c-.98,2.5,3.03,4.82,4.48,6.47Z"/>
      <path d="m368.47,435.85c-12.48-2.96-26.22-3.52-37.48-10.05-5.53-3.87.96-9.21,4.06-3.77,9.18,3.91,19.36,4.85,29.07,6.81,10.89,2.06,21.7,4.69,32.78,5.52,14.93,1.09,29.6-3.38,43.75-7.64,18.28-6.38,35.5-15.76,50.32-28.25,15.52-12.01,29.61-25.95,41.05-41.93,18.16-27.3,19.73-62.71,13.78-94.13-2.36-9.2-4.46-18.64-8.63-27.21-1.09-3.38-7.11-6.22-4.05-9.94,4.77-4.27,10.32,8.54,11.75,11.89,13.35,36.91,15.23,80.41-3.45,115.82-13.05,21.86-32.13,39.48-52.1,54.96-24.61,18.83-57.05,31.78-88.13,32.85-11.07-.21-21.94-2.59-32.71-4.94Z"/>
      <path d="m341.62,418.31c-1.26-.56-2.24-1.48-3.29-2.34-2.21-.43-2.88-3.63-.85-4.76,2.02-1.22,3.96.72,5.5,1.89,5.64,3,11.98-12.66,14.11-16.62,4.45-8.32,14.41-8.92,22.53-10.99,3.45-.87,7.3-3.4,10.8-1.53,2.91,1.65,3.68,5.13,5.39,7.77,4.91,6.6,14.06,3.11,20.8,2.25,4.97-.92,9.23,2.44,14.1,2.56,5.2.35,10.25-.91,15.29-2.17,5.46-1.37,10.91-2.73,16.52-2.04,8.11-4.8,18.64-8.93,22.32-18.36,1.85-7.84,5.7-15.18,6.67-23.19.29-11.97-4.3-24.79.43-36.32,5.85-11.33,15.56-21.37,16.38-34.55.38-4.1-1.49-7.87-2.48-11.74-1.51-5.41-1.84-11.02-2.23-16.59-.07-6.79,7.88-6.93,11.98-3.34,3.32,1.83,5.24,5.46,8.38,7.36,2.47-2.61,2.26-6.71,2.65-10.07-2.22-3.98-3.71-8.45-2.67-13.05-3.35-2.9-4.8-7.9-3.45-12.13.84-3.58,5.19-5.34,8.11-2.91,3.67,3.59,5.38,8.7,8.71,12.62.77,1.18.36,2.87-.72,3.7-4.08,3.09-8.39-7.39-10.37-10.04.98,6.83,4.93,2.8,3.42,12.81,1.57,7.39,4.27,5.98,2.25,15.11-.59,6.5-6.73,13.39-12.86,7.63-2.77-2.9-5.45-6.25-9.42-7.51.48,4.05.46,8.15,1.27,12.16.99,5.14,3.57,10,3.32,15.34-.22,15.05-11.3,26.34-17.45,39.17-1.79,6.04-.46,12.51-.39,18.71,1.42,9.23,1.59,18.61-2.45,27.27-2.51,7.03-3.47,15.09-9.33,20.32-6.18,5.47-13.6,9.4-20.79,13.23-1.16.41-2.21-.11-3.3-.39-5-.14-9.8,1.39-14.61,2.55-5.43,1.21-11,2.34-16.59,1.88-1.96.02-3.78-.62-5.59-1.28-1.88-.68-3.76-1.35-5.77-1.27-12.79,2.36-24,4.2-29.5-10.43-.25-.46-.69-.77-1.22-.57-6.22,2.41-12.92,3.12-19.18,5.31-5.2,2.05-7.13,7.17-9.26,11.88-3,5.12-7.57,13.25-14.04,13.25-.99,0-2.02-.19-3.11-.61Z"/>
      <path d="m349.75,328.63c-2.5-.29-2.59-4-.16-4.49,9-5.82,14.95-12.24,17.07-23.06.24-1.55.68-3.12.44-4.7-1.09-2.91-3.09-5.71-2.3-9,.52-2.95,2.7-5.29,4.99-7.07,2.54-2.44,5.37-2.84,7.88-.09,2.02-1.46,3.95-3.09,6.08-4.39,2.82-1.73,6.01-2.87,8.51-5.1,4.73-4.45,7.79-11.16,7.55-17.61-1.7-2.63,1.3-5.1,2.03-7.56,1.12-4.89,1.91-11.68,7.5-13.41,2.57-.75,5.2.12,7.67.89,3.91,1.09,7.26,3.39,10.5,5.75,4.71,3.23,10.7,4.48,16.31,3.49,9.57-1.91,1.7-9.04,8.13-13.85,3.17-2.42,7.43-2.39,11.24-2.56,4.73-.34,10.48.24,12.82,5.02,3.76,7.33,1.45,10.04,11.4,10.55,3.45.29,6.88.07,10.25-.73,1.55-.32,3.23-.66,4.18-2.06.88-.94,1.53-2.02,1.93-3.24.61-1.48,2.28-2.25,2.73-3.83.47-3.19-.43-6.93,2.08-9.48,1.2-1.24,2.98-1.66,4.38-2.64,1.26-1.12,2.78-1.57,4.43-1.45,1.8-.36,3.44-1.43,5.32-1.23,2.2.2,5.54,1.13,4.81,4-.75,2.42-3.01,2-4.96,1.57-1.76.59-3.55,1.3-5.42,1.37-.39.32-.76.65-1.16.94-.93.66-1.92,1.16-2.89,1.73-.5,2.39.05,4.98-.88,7.3-.66,1.77-1.82,3.3-3.2,4.57-.91,1.98-2.25,3.73-3.84,5.21-5.19,4.86-24.51,5.14-29.33-.48-2.79-2.83-2.87-7.23-5.17-10.38-.95-1.05-2.33-1.27-3.66-1.4-.57.02-1.37.01-2.29,0-3.95-.06-10.16-.13-10.57,3.1.68,6.33-1.68,11.36-8.19,12.98-7.21,1.87-15.21.36-21.34-3.84-3.72-2.8-7.71-5.21-12.37-6.07-.54-.11-1.17-.15-1.63.12-1.91,1.41-2.12,4.2-2.75,6.34-.32,2.65-1.18,5.15-2.61,7.41.62,5.88-.94,11.83-4.05,16.84-2.84,5.32-7.71,9.01-13.14,11.42-2.55,1.31-4.79,3.13-7.17,4.71-2.52,1.9-5.08,1.71-7.09-.8-7.49,5.64-2.49,6.67-1.57,13.31-.2,10.71-5.63,21.52-14.61,27.52-1.39.96-2.84,1.82-4.25,2.74-1.04.71-2.1,1.64-3.39,1.64-.08,0-.17,0-.26-.01Z"/>
      <path d="m66.32,580.05c-3.55-2-7.58-1.73-11.49-1.84-3.57-.54-7.07-1.59-10.7-1.85-4.09-.68-3.09-3.58-2.86-6.72.88-4.47,1.91-11.57,7.2-12.61,4.43-1,9.14-1.12,13.64-.68,2.77.46,4.86,2.34,7.18,3.75,3.64,1.41,8.02,2.77,9.09,7.05,1.11,3.98-1.38,7.87-4.05,10.62-1.43,1.65-3.44,2.91-5.54,2.91-.82,0-1.66-.2-2.49-.64Zm2.78-4.22c2.37-1.61,5.54-4.9,4.27-7.94-1.34-1.94-4-2.01-5.93-3.09-2.19-1.02-3.81-3.09-6.21-3.64-3.96-.25-8.25-.33-11.96,1.22-1.76,2.63-2.57,5.97-2.91,9.11,3.08.41,6.07,1.31,9.15,1.74.44-.02.88-.02,1.31-.02,4.26,0,8.43.79,12.29,2.62Z"/>
      <path d="m200.44,183.96c-12.64-1.62-30.48-3.5-37.63-15.41-11.89,9.84-27.42,11.88-42.25,12.25-18.23,1.57-28.06-10.09-27.24-27.73-10.78,6.09-24.2,3.18-32.61-5.55-5.8-5.21-11.3-11.04-14.55-18.22-13.79-30.61,15.42-63.34,47.14-56.23-2.85-15.08.6-32.22,14.06-41.18,9.14-6.93,22.11-11.34,33.09-6.31,5.99,3.36,10.58,8.98,14.56,14.48C160.99,13.75,191.59-.16,216.57,0c14.21,1.31,24.23,17.17,23.63,30.66,26.7-9,59.06,1.51,50.5,34.91,33.48-8.38,33.55,24.46,22.45,46.38-9.73,16.96-28.81,29.29-48.75,27.47,2.91,9.59-4.95,18.35-10.75,25.14-12.46,12.99-30.38,19.58-48.19,19.58-1.68,0-3.35-.06-5.02-.18Zm-34.29-22.65c.95.87.92,2.2,1.37,3.32.6,1.85,1.91,3.34,3.36,4.59,8.96,6.41,21.09,8.01,31.83,8.92,22.68,1.08,48.56-10.56,56.65-32.92,1.89-8.68-7.64-6.65-6.19-12.01,1.35-2.58,4.08-1.56,6.78-.54,1.54.58,3.07,1.16,4.34,1.08,21.75,2.13,42.82-14.63,47.87-35.48,3.23-9.68,4.29-27.38-9.43-28.39-5.25.15-12.45-.38-16.07,4.02-1.55,3.39-6.81,2.96-6.12-1.22.29-1.3,1.28-2.43,2.28-3.28,2.91-4.7,3.68-10.45,3.49-15.89-.29-14.25-16.6-22.04-29.23-20.31-6.13,1.12-13.91.55-18.65,5.1-.84,1.68-1.27,3.87-2.89,4.99-4.18,1.88-5.41-3.01-3.16-5.82,5.36-10.32-.8-23.06-9.44-29.55-7.83-4.74-17.8-1.63-26.11.25-15.31,4.52-31.84,14.27-36.07,30.68-1.41,4.33-2,8.96-1.79,13.43.07,2.72-3.79,3.74-5.1,1.38-2.07-9.61-5.66-14.02-12.75-20.71-6.33-5.84-16.23-4.2-23.4-.84-10.26,4.88-18.82,14.17-19.57,25.91-.23,6.39-.68,13.38,2.46,19.15,1.81,2.89-2.64,5.79-4.59,3.09-37.28-10.38-64.11,33.59-33.8,60.36,13.34,13.83,22.5,10.21,28.94,6.58,3.98-2.24,6.93-4.48,9.18-2.6.73.73,1.11,1.93.78,2.94-3,6.17-1.5,13.55,1.11,19.61,6.22,11.12,21.54,7.15,32.04,6.7,9.89-1.12,19.87-4.78,27.1-11.79.63-.96,1.7-1.54,2.77-1.54.72,0,1.43.26,2.01.83Z"/>
      <path d="m164.87,83.99c-2.49-3.08-1.33-8.53,2.96-9.07,5.55-.51,5.95,8.6.66,9.07-.43.58-1.12.88-1.82.88s-1.38-.29-1.81-.88Zm.32-6.24c-.32.42-.61.91-.73,1.43-.05.21-.08.42-.04.63,0,.04.01.07.02.11.02.2.13.4.3.52.13.1.29.14.45.14.17,0,.34-.05.47-.16.24-.2.33-.52.25-.81,0-.02.01-.04.02-.05.06-.12.12-.23.2-.34.06-.09.12-.16.18-.25.1-.12.21-.23.32-.34.18-.16.38-.31.57-.46.15-.09.3-.18.45-.27.13-.07.27-.13.41-.2.41-.19.61-.68.42-1.1-.16-.38-.61-.59-1-.46-.24.08-.47.17-.7.28,0,0,.02,0,.03-.02-.02.01-.05.03-.07.04l.05-.02c-.61.33-1.17.77-1.59,1.33Z"/>
      <path d="m165.88,79.7s0,.02,0,.03c0,0,0-.02,0-.03Z"/>
      <path d="m165.96,79.49s-.02.04-.03.06c0-.02.02-.04.03-.06Z"/>
      <path d="m197.07,83.05c-1.49-.53-1.53-2.23-1.88-3.51-.89-4.82,5.55-9.51,9-5.04,2.76,3.89-.36,9.22-4.54,9.22-.83,0-1.7-.21-2.57-.68Zm2.21-8.02c-.5.18-.97.45-1.36.83-.33.33-.59.7-.84,1.09-.21.35-.42.8-.36,1.22.02.12.06.23.13.32.07.13.16.23.29.3.12.07.25.1.38.1.23,0,.46-.1.6-.29.11-.13.16-.29.16-.45.06-.11.12-.21.2-.32.11-.16.23-.3.36-.45.08-.09.17-.18.26-.26.14-.11.27-.22.41-.32,0,0,0,0,0,0,0,0,0,0,0,0,0,0,0,0,0,0,.17-.11.35-.21.52-.31.39-.22.53-.74.3-1.12-.15-.27-.43-.41-.71-.41-.11,0-.22.02-.32.06Z"/>
      <path d="m179.35,130.26c-7.11-4.74-10.05-15.34-12.05-23.25-.36-3.22,4.38-3.89,4.91-.67,1.39,5.46,6.93,23.54,14.83,19.35,4.26-3.27,7.17-7.96,10.08-12.4,1.76-2.21,2.97-7.53,6.7-5.72,1.32.78,1.75,2.49,1,3.82-1.57,2.83-3.22,5.62-5.02,8.32-4.45,6.59-11.66,16.41-20.45,10.57Z"/>
      <path d="m202.37,110.11c-3.67-1.36-6.22-4.48-8.18-7.72-1.44-1.79.17-4.62,2.45-4.24,1.46.17,2.09,1.57,2.82,2.66,1.8,3.13,5.36,5.32,9.03,4.47,2.73-.37,7.05-3.29,8.4.61.41,1.52-.5,3.04-1.98,3.48-4.03,1.3-8.45,2.55-12.54.74Z"/>
      <path d="m161.5,107.61c-3.33-.47-2.63-5.59.7-5.11,1.49.21,2.97-.2,4.3-.86,3.24-1.06,7.33-7.57,10.46-3.98,2.43,3.76-3.31,5.69-5.65,7.5-2.92,1.78-6.34,3.03-9.8,2.45Z"/>
      <path d="m166.57,85.69c-2.55-.1-3.82-2.82-3.91-5.07-.5-3.91,3.64-7.95,7.52-6.35,2.54,1.17,4.69,4.29,3.25,7.04-1.13,2.81-3.04,4.43-5.94,4.43-.29,0-.6-.02-.91-.05Zm-1.39-7.94c-.32.42-.61.91-.73,1.43-.05.21-.08.42-.04.63,0,.04.02.07.03.11.02.2.13.4.3.52.13.1.29.14.45.14.17,0,.34-.05.47-.16.24-.2.34-.52.25-.81,0-.02.02-.04.02-.05.06-.12.12-.23.2-.34.06-.09.12-.17.18-.25.1-.12.21-.23.32-.34.18-.16.37-.31.57-.45.15-.09.3-.18.45-.27.14-.07.27-.14.41-.2.41-.19.61-.68.42-1.1-.16-.38-.61-.59-1-.46-.23.08-.46.16-.68.27,0,0,0,0,0,0h-.02s-.04.03-.06.04c0,0-.01,0-.01,0,0,0,0,0,.01,0-.59.32-1.12.76-1.53,1.3Zm2.4,2.34c.07,0,.14-.02.21-.03l.11-.15c.12-.19.25-.38.36-.57-.02-.02-.04-.05-.05-.07-.26.21-.61.46-.62.83Z"/>
      <path d="m165.88,79.69h0s0,.02-.01.03c0-.01,0-.02.01-.03Z"/>
      <path d="m165.96,79.49s-.02.04-.02.06l.02-.06Z"/>
      <path d="m166.72,76.45s0,0,.01,0c0,0-.01,0-.02,0,0,0,0,0,0,0Z"/>
      <path d="m166.78,76.41s.01,0,.02,0c0,0-.02,0-.03.01,0,0,0,0,0,0Z"/>
      <path d="m16.22,531.3c-4-.65-6.85-3.7-9.34-6.65-.97-.98-2.57-.54-3.59-1.41-3.57-3.35,1.69-8.5,1.48-12.49.11-2.06-.49-4.23-1.63-5.95-1.98-1.53-3.47-3.8-3.09-6.4.26-3.06,2.52-5.63,5.59-6.09,1.55-.43,3.14-1.05,4.77-.83.92.08,1.74.56,2.65.62,1.76-.45,3.2-1.81,5.05-2.08,2.48-.36,5.51.9,6.41,3.37,2.68-.55,5.19.72,7.8.9,3.06-.96,6.28-.6,8.31,2.14,3.39,5.73-.22,14.34-4.72,18.54-1.17.98-2.72,1.05-4.08,1.58-.8.46-1.57,1.04-2.49,1.2-1.2.25-2.32-.26-3.46-.54-1.03-.15-2.07.1-3.1-.04-.55,3.42.59,7.01-.31,10.34-1.04,2.36-3.64,4.1-6.25,3.8Zm.41-4.79c.4-.02,1.01-.31,1.05-.74-.21-3.3-.77-6.64-.3-9.94.37-3.23,4.54-6.84,7.34-3.89.52.07,1.03.11,1.54.21.81.16,1.57.42,2.34.7,1.37-1.04,3.2-1.08,4.6-1.96,2.62-3.16,4.87-7.7,3.67-11.83-.7-.99-1.66-.91-2.67-.49-2.06.67-4.22.3-6.27-.26-2.17-.63-4.18.88-6.3.49-1.57-.38-2.19-2.22-1.65-3.63-.81-.53-1.56-.33-2.35.13-1.82,1-3.88,1.98-6,1.41-1.08-.37-2.13-.66-3.22-.11-1.13.44-1.74.55-2.65,1-.49.6-.86,1.59-.42,2.3,2.76,1.93,4.44,5.08,5.04,8.36.84,3.96-.85,7.73-2.67,11.12,3.74,1.4,4.8,6.25,8.9,7.12Z"/>
    </g>
  </g>
</svg>