<?xml version="1.0" encoding="UTF-8"?>
<svg id="Ebene_2" data-name="Ebene 2" xmlns="http://www.w3.org/2000/svg" viewBox="0 0 64 64">
  <g id="Ebene_1-2" data-name="Ebene 1">
    <g>
      <path d="m29.01,61.47c0-.29.08-.56.21-.78C7.68,62.85-8.11,34.47,4.47,17.12,21.45-7.9,58.36-3.49,63.71,27.78c2.01,13.49-6.71,27.54-18.84,33.19-4.51,1.81-9.51,1.73-14.3,2.07-.02,0-.04,0-.05,0-.82,0-1.51-.76-1.51-1.57Zm6.03-4.49c0,1.09-.48,2.07-1.25,2.75,7.92-.04,14.12-2.55,19.17-8.75,7.71-8.25,10.15-20.72,4.88-30.82C47.37-.36,20.98,1.63,9.05,19.62c-8.31,11.3-.76,30.01,12.43,33.6,3.25.58,6.57.15,9.85.07.04,0,.08,0,.12,0,1.95,0,3.58,1.79,3.58,3.7Z"/>
      <path d="m25.63,28.1c-.93-.39-1.31-1.44-.96-2.36.84-2.22,1.74-4.4,2.68-6.58,1.31-2.08,2.09-8.32,5.41-6.73.99.58,1.28,1.93.63,2.86-.82,1.8-1.56,3.63-2.39,5.42-1,2.15-1.99,4.3-3.01,6.45-.31.68-.98,1.1-1.67,1.1-.23,0-.46-.05-.68-.14Z"/>
      <path d="m38.23,30.15c-2.58-5.06-2.96-10.97-5.76-15.91-.27-.3-.41-.7-.35-1.11.11-.81.94-1.37,1.73-1.14,1.64.85,2,3.09,2.8,4.64,1.41,3.78,2.37,8.06,4.2,11.62.27.53.6,1.09.4,1.71-.19.76-.87,1.16-1.55,1.16-.6,0-1.21-.31-1.48-.96Z"/>
      <path d="m32.65,50.78c-1.48-.45-1.78-2.2-2.33-3.45-1.41-3.97-3.14-7.84-5.25-11.48-1.1-1.95,1.97-3.5,2.88-1.44,1.91,3.75,3.72,7.54,5.15,11.5.82-1.71,4.9-9.85,7.15-8,.62.48.78,1.46.27,2.08-1.14,1.4-2.25,2.81-3.17,4.35-.71,1.2-1.27,2.48-1.81,3.76-.38,1.15-1.09,2.73-2.44,2.73-.14,0-.29-.02-.45-.06Z"/>
      <path d="m31.89,34.21c-6.62-1.58-1.81-9.44,3.26-6.31.94.73,1.12,2.01,1.49,3.07.29,2.03-1.62,3.48-3.49,3.48-.43,0-.86-.08-1.25-.24Z"/>
    </g>
  </g>
</svg>