<?xml version="1.0" encoding="UTF-8"?>
<svg id="Ebene_2" data-name="Ebene 2" xmlns="http://www.w3.org/2000/svg" viewBox="0 0 64 64">
  <defs>
    <style>
      .cls-1 {
        fill: none;
      }
    </style>
  </defs>
  <g id="Ebene_1-2" data-name="Ebene 1">
    <g>
      <g>
        <path d="m6.47,56.84c-.17-3.37,4.34-2.69,6.56-3.47,8.63-1.69,17.12-4.18,25.84-5.38,4.67-.69,9.38-.61,14.1-.53,2.22.04,4.44.07,6.66.03-.04-5.66-1.3-11.18-1.74-16.8-.28-4.22-.14-8.46.08-12.67.02-3.03.98-6.13.42-9.12-1.67-2.59-13.99.71-17.14,1.1-11.04,2.04-23.34,4.58-33.84-.72-.26,6.22-1.61,12.34-2.02,18.56-.4,6.34-.19,12.71-.02,19.06.06,2.25.09,4.49.18,6.73.38,1.89-.46,3.98-2.62,4-4.31-.38-2.2-6.16-2.7-9.05-.11-6.63-.45-13.28,0-19.89.35-5.71,1.78-11.63,2.91-17.11.58-1.91.43-4.69,2.1-5.99.54-.29,1.21-.26,1.74.04,1.58.97,3.18,1.9,4.93,2.5,5.61,1.88,11.45,1.61,17.2,1.03,6.53-.68,12.9-2.35,19.38-3.38,4.64-.6,12.81-2.32,13.02,4.55-.11,10.09-.2,20.19,2,30.1.09,3.06,1.85,9.68-1.99,10.8-1.1.26-2.24.25-3.37.24-.44,0-.87,0-1.29,0-1.39,0-2.78,0-4.17,0-3.74-.01-7.49-.02-11.21.34-6.64.71-13.11,2.46-19.58,4.05-4.28,1.05-8.56,2.03-12.87,2.89-.12.02-.24.04-.36.04-1.07,0-2.06-.93-2.2-1.99Z"/>
        <path d="m10.58,48.7c1.31-4.11,3.16-8.2,2.72-12.66-.48-5.32-2.74-11.65,1.2-16.19,2.42-2.64,6.52-3.75,10-3.6,1.78.39,2.65,2.31,2.65,3.99.2,3.36-3.28,6.4-1.69,9.71.7,1.67,2.65.61,3.92.35,2.45-.67,5.05-.65,7.53-.15.72-4.65,5.3-6.69,8.55-9.34,2.34-2.08,4.26-4.57,5.84-7.27.36-.59,1.13-.81,1.74-.46,2.3,1.26-3.56,7.83-4.68,9.2-2.43,3.26-7.39,4.44-8.49,8.63,3.85.43,7.74,4.32,5.89,8.3-3.38,5.18-8.97-.62-8.98-5.02-2.44-.46-4.94-.7-7.39-.23-3.23.94-6.83-.35-7.33-4-.49-2.78,1.35-5.2,2.34-7.65.87-2.69.44-4.58-2.8-3.58-10.47,1.6-5.87,11.04-4.9,17.94.21,3.21-.27,6.49-1.53,9.46-.37.9-.82,1.77-1.21,2.66.04.97-.68,1.83-1.69,1.83s-1.79-.92-1.69-1.93Zm31.41-10.53v.02c.18.07.28.11.45.11.15,0,.28-.06.39-.16h0c.45-.38.14-.95-.06-1.38-.51-1.15-1.68-1.69-2.85-1.88.31,1.26.96,2.56,2.08,3.29Z"/>
        <path d="m51.47,16.55c-1.9-.62-2.82-3.26-1.76-4.96.85-1.43,2.67-2.5,4.31-1.68,1.56.78,2.23,2.66,1.45,4.26-.66,1.2-1.99,2.46-3.42,2.46-.2,0-.39-.02-.59-.07Z"/>
        <path d="m9.66,50.71c-3.09-2.7.06-6.74,3.59-5.37,1.72.96,1.17,3.26.33,4.65-.5.83-1.39,1.27-2.28,1.27-.58,0-1.16-.18-1.64-.56Z"/>
      </g>
      <rect class="cls-1" x="0" width="64" height="64"/>
    </g>
  </g>
</svg>