<?xml version="1.0" encoding="UTF-8"?>
<svg id="Ebene_2" data-name="Ebene 2" xmlns="http://www.w3.org/2000/svg" viewBox="0 0 64 64">
  <defs>
    <style>
      .cls-1 {
        fill: none;
      }
    </style>
  </defs>
  <g id="Ebene_1-2" data-name="Ebene 1">
    <g>
      <g>
        <path d="m8.61,62.8c-4.25-3.54-2.33-10.28-2.76-15.17,0-8.03-.15-16.06-.31-24.08.08-3.85,5.8-3.89,5.9,0,.26,11.54-.23,23.17.54,34.68.02.04.03.08.04.11,1.99.66,4.17-.11,6.21-.23,3.82-.4,7.67-.48,11.5-.33,5.18.21,10.34.81,15.48,1.39,1.48.03,3.17.65,4.51-.11.08-.07.15-.15.21-.24h.02c1.58-4.8,1-10.09,1.6-15.08.42-7.58,1.56-15.1,2.33-22.65.13-1.25,1.38-2.13,2.59-1.97,1.24.17,2.15,1.36,1.97,2.59-.6,4.09-1.37,8.16-1.88,12.26-.91,7.11-1.32,13.75-1.97,20.73-.3,2.47-.46,5.37-2.47,7.12-1.66,1.38-3.75,1.37-5.8,1.32-5.03-.21-10.08-.7-15.13-.68-3.79,0-7.59.08-11.35.6-2.24.25-4.62.93-6.91.93-1.51,0-2.97-.29-4.32-1.2Z"/>
        <path d="m23.04,54.48c-.56-.56-.78-1.24-.83-2.01-.52-7.42-.81-14.85-1.14-22.27.31-2.98-2.18-9.17,2.32-9.56,3.58.13,2.49,4.34,2.84,6.52.44,6.24.79,12.34,1.2,18.22.16,2.36.32,4.72.47,7.09.1,1.67-1.44,2.83-2.94,2.83-.7,0-1.39-.25-1.92-.82Z"/>
        <path d="m34.61,53.83c.19-9.51.3-19.19-.47-28.58.52-1.46,2.65-1.49,3.37-.22.91,2.2.92,4.7,1.21,7.05.54,7.23.52,14.5.71,21.75-.02,1.57-1.22,2.37-2.42,2.37s-2.38-.78-2.41-2.37Z"/>
        <path d="m10.01,16.09c-1.02,0-1.87-.84-1.87-1.87.11-2.17,2.59-2.01,4.82-1.87,1.03.07,2.02.14,2.71-.02,12.38-.59,24.72-2.12,37.13-2.19,1.34-.03,2.45,1.14,2.45,2.45s-1.12,2.42-2.45,2.45c-4.84.14-9.69.18-14.53.29-8.68.18-17.36.76-26.04.76-.74,0-1.48,0-2.22-.02Z"/>
        <path d="m38.53,12.14c-.84-2.2-1.03-5.05-2.95-6.62-2.56-.87-5.39,3.01-5.82,5.23,0-.05,0-.1,0-.1.01-.08.03-.16,0-.23,0,3.18-4.75,2.88-4.4-.23,1-8.61,12.29-15.27,16.53-4.93.64,2.32,2.91,7.53-.39,8.57-.21.06-.42.09-.63.09-1.05,0-2.02-.71-2.34-1.77Z"/>
      </g>
      <rect class="cls-1" width="64" height="64"/>
    </g>
  </g>
</svg>