<?xml version="1.0" encoding="UTF-8"?>
<svg id="Ebene_2" data-name="Ebene 2" xmlns="http://www.w3.org/2000/svg" viewBox="0 0 64 64">
  <defs>
    <style>
      .cls-1 {
        fill: none;
      }
    </style>
  </defs>
  <g id="Ebene_1-2" data-name="Ebene 1">
    <g>
      <g>
        <path d="m2.39,55.6c-4.3-1.84-1.48-11-1.47-14.82.53-4.23.72-8.49.66-12.75-.05-6.08-.63-12.14-.47-18.22.36-2.53,4.09-2.54,4.45,0,.4,7.06,1.27,14.01,1.36,21.07.15,6.89-1.02,13.7-1.66,20.53,3.1.04,6.07-1.05,9.15-1.31,7.77-.88,15.59-.3,23.39-.06,4.01.1,8.03.09,12.05.09,4.07,0,8.14,0,12.21.1,2.58.04,2.62,3.94,0,3.98-8.29.3-16.57.17-24.86.03-6.09-.1-12.19-.2-18.27-.12-3.23.14-6.43.63-9.57,1.38-1.35.29-2.78.59-4.19.59-.94,0-1.87-.13-2.77-.49Z"/>
        <path d="m10.61,45.36c-1.23-.36-1.75-1.93-.92-2.92.97-1.25,1.83-2.65,2.5-4.03,2.99-7.18,4.94-14.6,14.03-15.59,1.87-.16,3.73.59,5,1.97,1.27,1.2,2.03,3.24,3.88,3.64,2.08.08,4.5-.15,5.77,1.89,1.39,1.72,1.04,4.39,2.78,5.84,4.17-1.75,2.41-7.88,5.68-10.5,1.69-1.25,4.05-1.81,6.08-1.19,1.52.66,3.09,1.01,4.75.82.9-.03,1.68.7,1.8,1.57.18,2.63-3.22,2.26-4.96,1.91-1.72-.35-3.23-1.65-5.06-1.05-2.47.72-1.58,4.05-2.22,5.98-.73,5.38-7.53,9.4-10.53,3.3-.68-1.39-.76-3.01-1.39-4.41-.53-.91-1.87-.69-2.74-1.1-.93-.31-1.8-.71-2.54-1.36-1.63-1.33-2.56-3.53-4.53-4.42-2.81-.55-5.73,1.68-7.46,3.73-2.32,4.27-2.53,9.59-5.86,13.37-.95,1.02-2.09,2.6-3.59,2.6-.15,0-.3-.02-.46-.05Z"/>
      </g>
      <rect class="cls-1" width="64" height="64"/>
    </g>
  </g>
</svg>