<?xml version="1.0" encoding="UTF-8"?>
<svg id="Ebene_2" data-name="Ebene 2" xmlns="http://www.w3.org/2000/svg" viewBox="0 0 64 64">
  <defs>
    <style>
      .cls-1 {
        fill: none;
      }
    </style>
  </defs>
  <g id="Ebene_1-2" data-name="Ebene 1">
    <g>
      <g>
        <path d="m20.13,33.7c-4.64-.36-9.58-2.38-11.81-6.71-.29-.47-.19-1.09.17-1.48C-1.77,17.53,9.09,3.71,18.79,1.58c3.44-.86,8.38-1.84,10.31,2.05,7.32-5.27,26.43-6.27,23.57,7.14,7.71.46,9.24,8.56,3.54,13.08-5.8,4.99-13.81,7.65-21.44,6.87-3.99,2.65-9.11,2.99-13.82,2.99-.28,0-.55,0-.82,0ZM24.22,3.27c-4.16.06-8.3,1.15-11.47,3.88-3.93,3.54-8.74,9.39-5.26,14.73.92,1.31,2.22,2.54,3.52,3.4.87.39,1.71,1.42.5,1.99,3.22,3.92,8.73,4.55,13.44,4.16,2.44-.22,4.9-.54,7.17-1.47-1.06-.38-1.86-1.51-1.16-2.54,1.16-1.42,4.39-1.11,4.98.74,6.61.23,13.37-1.95,18.48-6.14,4.53-3.3,3.39-9.43-2.75-8.77-.87.14-1.92.15-2.39-.74-.42-.72-.06-1.52.11-2.21.26-1.16.29-2.37-.11-3.51-2.5-6.19-15.66-4.5-19.61-.6-.03,1.87-2.65,1.95-2.52.03.33-1.6-1.39-2.94-2.89-2.94,0,0,0,0-.01,0Z"/>
        <path d="m24.65,49.94c-3.54-1.89.15-5.73,1.52-7.92,1.16-1.5,2.15-3.26,3.73-4.34,1.1-.67,2.67.44,2.24,1.72-.56,1.75-1.46,3.4-2.26,5.02-1.17,1.84-1.72,5.72-4.2,5.72-.31,0-.65-.06-1.02-.19Z"/>
        <path d="m38.05,47.38c-1.95-1.88-3.66-3.96-5.59-5.85-1.26-1.16-3.57-2.97-1.19-4.36,2.09-.93,7.93,5.82,9.7,7.3,1.45,1.48.08,3.52-1.51,3.52-.47,0-.96-.18-1.4-.61Z"/>
        <path d="m32.35,62.16c-.47-4.12-.38-8.26-.8-12.37-.01-.89-.39-1.85-.07-2.7.33-.66,1.06-.94,1.73-.58.59.32.82,1.1,1,1.71,1.24,4.36,1.67,8.89,2.42,13.36.19,1.55-1,2.42-2.19,2.42-.96,0-1.91-.58-2.1-1.84Z"/>
      </g>
      <rect class="cls-1" width="64" height="64"/>
    </g>
  </g>
</svg>