<?xml version="1.0" encoding="UTF-8"?>
<svg id="Ebene_2" data-name="Ebene 2" xmlns="http://www.w3.org/2000/svg" viewBox="0 0 277.11 184.13">
  <g id="Ebene_1-2" data-name="Ebene 1">
    <g>
      <path d="m157.78,183.96c-12.64-1.62-30.48-3.5-37.63-15.41-11.89,9.84-27.42,11.88-42.25,12.25-18.23,1.57-28.06-10.09-27.24-27.73-10.78,6.09-24.2,3.18-32.61-5.55-5.8-5.21-11.3-11.04-14.55-18.22-13.79-30.61,15.42-63.34,47.14-56.23-2.85-15.08.6-32.22,14.06-41.18,9.14-6.93,22.11-11.34,33.09-6.31,5.99,3.36,10.58,8.98,14.56,14.48C118.34,13.75,148.93-.16,173.91,0c14.21,1.31,24.23,17.17,23.63,30.66,26.7-9,59.06,1.51,50.5,34.91,33.48-8.38,33.55,24.46,22.45,46.38-9.73,16.96-28.81,29.29-48.75,27.47,2.91,9.59-4.95,18.35-10.75,25.14-12.46,12.99-30.38,19.58-48.19,19.58-1.68,0-3.35-.06-5.02-.18Zm-34.29-22.65c.95.87.92,2.2,1.37,3.32.6,1.85,1.91,3.34,3.36,4.59,8.96,6.41,21.09,8.01,31.83,8.92,22.68,1.08,48.56-10.56,56.65-32.92,1.89-8.68-7.64-6.65-6.19-12.01,1.35-2.58,4.08-1.56,6.78-.54,1.54.58,3.07,1.16,4.34,1.08,21.75,2.13,42.82-14.63,47.87-35.48,3.23-9.68,4.29-27.38-9.43-28.39-5.25.15-12.45-.38-16.07,4.02-1.55,3.39-6.81,2.96-6.12-1.22.29-1.3,1.28-2.43,2.28-3.28,2.91-4.7,3.68-10.45,3.49-15.89-.29-14.25-16.6-22.04-29.23-20.31-6.13,1.12-13.91.55-18.65,5.1-.84,1.68-1.27,3.87-2.89,4.99-4.18,1.88-5.41-3.01-3.16-5.82,5.36-10.32-.8-23.06-9.44-29.55-7.83-4.74-17.8-1.63-26.11.25-15.31,4.52-31.84,14.27-36.07,30.68-1.41,4.33-2,8.96-1.79,13.43.07,2.72-3.79,3.74-5.1,1.38-2.07-9.61-5.66-14.02-12.75-20.71-6.33-5.84-16.23-4.2-23.4-.84-10.26,4.88-18.82,14.17-19.57,25.91-.23,6.39-.68,13.38,2.46,19.15,1.81,2.89-2.64,5.79-4.59,3.09-37.28-10.38-64.11,33.59-33.8,60.36,13.34,13.83,22.5,10.21,28.94,6.58,3.98-2.24,6.93-4.48,9.18-2.6.73.73,1.11,1.93.78,2.94-3,6.17-1.5,13.55,1.11,19.61,6.22,11.12,21.54,7.15,32.04,6.7,9.89-1.12,19.87-4.78,27.1-11.79.63-.96,1.7-1.54,2.77-1.54.72,0,1.43.26,2.01.83Z"/>
      <path d="m122.21,83.99c-2.49-3.08-1.33-8.53,2.96-9.07,5.55-.51,5.95,8.6.66,9.07-.43.58-1.12.88-1.82.88s-1.38-.29-1.81-.88Zm.32-6.24c-.32.42-.61.91-.73,1.43-.05.21-.08.42-.04.63,0,.04.01.07.02.11.02.2.13.4.3.52.13.1.29.14.45.14.17,0,.34-.05.47-.16.24-.2.33-.52.25-.81,0-.02.01-.04.02-.05.06-.12.12-.23.2-.34.06-.09.12-.16.18-.25.1-.12.21-.23.32-.34.18-.16.38-.31.57-.46.15-.09.3-.18.45-.27.13-.07.27-.13.41-.2.41-.19.61-.68.42-1.1-.16-.38-.61-.59-1-.46-.24.08-.47.17-.7.28,0,0,.02,0,.03-.02-.02.01-.05.03-.07.04l.05-.02c-.61.33-1.17.77-1.59,1.33Z"/>
      <path d="m123.22,79.7s0,.02,0,.03c0,0,0-.02,0-.03Z"/>
      <path d="m123.3,79.49s-.02.04-.03.06c0-.02.02-.04.03-.06Z"/>
      <path d="m154.41,83.05c-1.49-.53-1.53-2.23-1.88-3.51-.89-4.82,5.55-9.51,9-5.04,2.76,3.89-.36,9.22-4.54,9.22-.83,0-1.7-.21-2.57-.68Zm2.21-8.02c-.5.18-.97.45-1.36.83-.33.33-.59.7-.84,1.09-.21.35-.42.8-.36,1.22.02.12.06.23.13.32.07.13.16.23.29.3.12.07.25.1.38.1.23,0,.46-.1.6-.29.11-.13.16-.29.16-.45.06-.11.12-.21.2-.32.11-.16.23-.3.36-.45.08-.09.17-.18.26-.26.14-.11.27-.22.41-.32,0,0,0,0,0,0,0,0,0,0,0,0,0,0,0,0,0,0,.17-.11.35-.21.52-.31.39-.22.53-.74.3-1.12-.15-.27-.43-.41-.71-.41-.11,0-.22.02-.32.06Z"/>
      <path d="m136.7,130.26c-7.11-4.74-10.05-15.34-12.05-23.25-.36-3.22,4.38-3.89,4.91-.67,1.39,5.46,6.93,23.54,14.83,19.35,4.26-3.27,7.17-7.96,10.08-12.4,1.76-2.21,2.97-7.53,6.7-5.72,1.32.78,1.75,2.49,1,3.82-1.57,2.83-3.22,5.62-5.02,8.32-4.45,6.59-11.66,16.41-20.45,10.57Z"/>
      <path d="m159.72,110.11c-3.67-1.36-6.22-4.48-8.18-7.72-1.44-1.79.17-4.62,2.45-4.24,1.46.17,2.09,1.57,2.82,2.66,1.8,3.13,5.36,5.32,9.03,4.47,2.73-.37,7.05-3.29,8.4.61.41,1.52-.5,3.04-1.98,3.48-4.03,1.3-8.45,2.55-12.54.74Z"/>
      <path d="m118.85,107.61c-3.33-.47-2.63-5.59.7-5.11,1.49.21,2.97-.2,4.3-.86,3.24-1.06,7.33-7.57,10.46-3.98,2.43,3.76-3.31,5.69-5.65,7.5-2.92,1.78-6.34,3.03-9.8,2.45Z"/>
      <path d="m123.91,85.69c-2.55-.1-3.82-2.82-3.91-5.07-.5-3.91,3.64-7.95,7.52-6.35,2.54,1.17,4.69,4.29,3.25,7.04-1.13,2.81-3.04,4.43-5.94,4.43-.29,0-.6-.02-.91-.05Zm-1.39-7.94c-.32.42-.61.91-.73,1.43-.05.21-.08.42-.04.63,0,.04.02.07.03.11.02.2.13.4.3.52.13.1.29.14.45.14.17,0,.34-.05.47-.16.24-.2.34-.52.25-.81,0-.02.02-.04.02-.05.06-.12.12-.23.2-.34.06-.09.12-.17.18-.25.1-.12.21-.23.32-.34.18-.16.37-.31.57-.45.15-.09.3-.18.45-.27.14-.07.27-.14.41-.2.41-.19.61-.68.42-1.1-.16-.38-.61-.59-1-.46-.23.08-.46.16-.68.27,0,0,0,0,0,0h-.02s-.04.03-.06.04c0,0-.01,0-.01,0,0,0,0,0,.01,0-.59.32-1.12.76-1.53,1.3Zm2.4,2.34c.07,0,.14-.02.21-.03l.11-.15c.12-.19.25-.38.36-.57-.02-.02-.04-.05-.05-.07-.26.21-.61.46-.62.83Z"/>
      <path d="m123.22,79.69h0s0,.02-.01.03c0-.01,0-.02.01-.03Z"/>
      <path d="m123.3,79.49s-.02.04-.02.06l.02-.06Z"/>
      <path d="m124.06,76.45s0,0,.01,0c0,0-.01,0-.02,0,0,0,0,0,0,0Z"/>
      <path d="m124.12,76.41s.01,0,.02,0c0,0-.02,0-.03.01,0,0,0,0,0,0Z"/>
    </g>
  </g>
</svg>